<?xml version="1.0" encoding="UTF-8"?>
<svg width="47px" height="46px" viewBox="0 0 47 46" version="1.1" xmlns="http://www.w3.org/2000/svg" xmlns:xlink="http://www.w3.org/1999/xlink">
    <title>编组</title>
    <defs>
        <linearGradient x1="74.4443044%" y1="7.0506574%" x2="14.9780567%" y2="85.1379564%" id="linearGradient-1">
            <stop stop-color="#40E18B" offset="0%"></stop>
            <stop stop-color="#36C6DF" offset="36.405929%"></stop>
            <stop stop-color="#1D91E8" offset="68.6407579%"></stop>
            <stop stop-color="#ED79FF" offset="100%"></stop>
        </linearGradient>
    </defs>
    <g id="页面-1" stroke="none" stroke-width="1" fill="none" fill-rule="evenodd">
        <g id="手机" transform="translate(-164.000000, -710.000000)">
            <g id="编组-4" transform="translate(0.000000, 710.000000)">
                <g id="编组" transform="translate(168.000000, 3.000000)">
                    <path d="M34.2930928,24.6824312 C33.996417,23.4727 33.996417,20.150161 34.2930928,14.7148141 C34.2930928,6.62166635 27.6720022,0 19.5788544,0 C11.4857067,0 4.864616,6.62166635 4.864616,14.7148141 C5.16129183,20.150161 5.16129183,23.4727 4.864616,24.6824312 C4.41960225,26.497028 3.30159877,30.5171198 1.74146003,32.3063859 C-0.483033,34.4721579 -0.0731367692,35.818713 0.278038372,36.5210633 C0.629213514,37.2228379 1.79960542,38.2182179 4.37527359,37.1059714 C6.95036606,35.9937249 8.44602674,35.3051913 11.4897365,37.5573178 C13.8149765,39.0984586 16.5961685,40 19.5788544,40 C22.5615403,40 25.3427323,39.0984586 27.6679723,37.5573178 C30.7116821,35.3051913 32.2073428,35.9937249 34.7824353,37.1059714 C37.3581034,38.2182179 38.5284953,37.2228379 38.8796705,36.5210633 C39.2308456,35.818713 39.6407418,34.4721579 37.4162488,32.3063859 C35.8561101,30.5171198 34.7381066,26.497028 34.2930928,24.6824312 Z" id="Fill-1" stroke="#FFFFFF" stroke-width="6" fill="url(#linearGradient-1)"></path>
                    <path d="M34.2930928,24.6824312 C33.996417,23.4727 33.996417,20.150161 34.2930928,14.7148141 C34.2930928,6.62166635 27.6720022,0 19.5788544,0 C11.4857067,0 4.864616,6.62166635 4.864616,14.7148141 C5.16129183,20.150161 5.16129183,23.4727 4.864616,24.6824312 C4.41960225,26.497028 3.30159877,30.5171198 1.74146003,32.3063859 C-0.483033,34.4721579 -0.0731367692,35.818713 0.278038372,36.5210633 C0.629213514,37.2228379 1.79960542,38.2182179 4.37527359,37.1059714 C6.95036606,35.9937249 8.44602674,35.3051913 11.4897365,37.5573178 C13.8149765,39.0984586 16.5961685,40 19.5788544,40 C22.5615403,40 25.3427323,39.0984586 27.6679723,37.5573178 C30.7116821,35.3051913 32.2073428,35.9937249 34.7824353,37.1059714 C37.3581034,38.2182179 38.5284953,37.2228379 38.8796705,36.5210633 C39.2308456,35.818713 39.6407418,34.4721579 37.4162488,32.3063859 C35.8561101,30.5171198 34.7381066,26.497028 34.2930928,24.6824312 Z" id="Fill-1" fill="url(#linearGradient-1)"></path>
                    <g id="编组-3" transform="translate(12.110626, 6.053159)">
                        <path d="M15.6226882,7.81105626 C15.6226882,3.49735899 12.1253292,-2.52637417e-14 7.81163196,-2.52637417e-14 C3.49735899,-2.52637417e-14 0,3.49735899 0,7.81105626 C0,12.1247535 3.49735899,15.6221125 7.81163196,15.6221125 C12.1253292,15.6221125 15.6226882,12.1247535 15.6226882,7.81105626" id="Fill-3" fill="#FFFFFF"></path>
                        <path d="M14.7487802,8.79883709 C14.7487802,10.8091709 13.1189822,12.4389689 11.1086484,12.4389689 C9.09831465,12.4389689 7.46851657,10.8091709 7.46851657,8.79883709 C7.46851657,6.78850333 9.09831465,5.15870526 11.1086484,5.15870526 C13.1189822,5.15870526 14.7487802,6.78850333 14.7487802,8.79883709" id="Fill-5" fill="#263244"></path>
                    </g>
                </g>
            </g>
        </g>
    </g>
</svg>