<?xml version="1.0" standalone="no"?>
<!DOCTYPE svg PUBLIC "-//W3C//DTD SVG 1.1//EN" "http://www.w3.org/Graphics/SVG/1.1/DTD/svg11.dtd" >
<!--
2013-9-30: Created.
-->
<svg>
<metadata>
Created by iconfont
</metadata>
<defs>

<font id="iconfont" horiz-adv-x="1024" >
  <font-face
    font-family="iconfont"
    font-weight="500"
    font-stretch="normal"
    units-per-em="1024"
    ascent="896"
    descent="-128"
  />
    <missing-glyph />
    
    <glyph glyph-name="ping" unicode="&#58948;" d="M750.1696 355.9168c-1.1264 113.4848 92.544 167.8848 96.704 170.5984-52.6336 77.0304-134.6176 87.552-163.8272 88.7936-69.7728 7.0528-136.128-41.088-171.5584-41.088-35.3024 0-89.9584 40.0512-147.84 38.9888-76.0448-1.1264-146.176-44.2112-185.344-112.3328-79.0016-137.1136-20.224-340.224 56.7936-451.456 37.632-54.4256 82.5216-115.5456 141.44-113.3696 56.7168 2.2784 78.208 36.7104 146.7648 36.7104 68.5824 0 87.872-36.7104 147.9296-35.584 61.0432 1.152 99.7376 55.4624 137.1136 110.0672 43.2128 63.1424 61.0176 124.288 62.0544 127.424-1.344 0.6144-119.0528 45.696-120.2304 181.248z m-112.8192 333.0048C668.6336 726.8608 689.7408 779.4944 683.968 832c-45.056-1.8432-99.648-30.016-131.968-67.84-29.0048-33.5744-54.3744-87.168-47.5648-138.624 50.2912-3.9296 101.6192 25.5616 132.9152 63.3856z"  horiz-adv-x="1024" />

    
    <glyph glyph-name="weix" unicode="&#58949;" d="M673.3184 522.7776c10.3168 0 20.5568-0.7424 30.6816-1.856C676.4288 648 539.2128 742.4 382.5536 742.4 207.4496 742.3616 64 624.2048 64 474.1504c0-86.6048 47.744-157.696 127.4752-212.864L159.6032 166.4l111.3856 55.2704c39.8208-7.7952 71.808-15.808 111.5648-15.808 10.0096 0 19.9168 0.4864 29.7472 1.2672a232.704 232.704 0 0 0-9.8304 66.0736c0 137.7664 119.5264 249.5744 270.848 249.5744z m-171.264 85.504c23.9872 0 39.8592-15.6416 39.8592-39.36 0-23.6032-15.872-39.4624-39.872-39.4624-23.8848 0-47.8592 15.8592-47.8592 39.4624 0 23.7184 23.9744 39.3472 47.872 39.3472z m-222.976-78.8224c-23.8848 0-47.9616 15.8592-47.9616 39.4624 0 23.7184 24.0768 39.3472 47.9616 39.3472 23.8592 0 39.7568-15.616 39.7568-39.3472 0-23.6416-15.8976-39.4624-39.7568-39.4624zM960 271.6544C960 396.992 833.4976 499.2 691.392 499.2 540.9024 499.2 422.4 397.0304 422.4 271.6544c0-125.568 118.5024-227.52 268.992-227.52 31.488 0 63.2448 7.8592 94.8992 15.7312L873.0368 12.8l-23.7952 78.3232C912.6784 138.3296 960 200.9344 960 271.6544z m-355.84 39.232c-15.744 0-31.6544 15.5008-31.6544 31.3728 0 15.6544 15.8976 31.3728 31.6544 31.3728 23.936 0 39.5776-15.7184 39.5776-31.3728 0-15.872-15.6416-31.3728-39.5776-31.3728z m173.9776 0c-15.6416 0-31.424 15.5008-31.424 31.3728 0 15.6544 15.7824 31.3728 31.424 31.3728 23.68 0 39.5648-15.7184 39.5648-31.3728 0-15.872-15.8976-31.3728-39.5648-31.3728z"  horiz-adv-x="1024" />

    
    <glyph glyph-name="anz" unicode="&#58950;" d="M754.3424 562.6624c1.4336 11.9296 0.0256 13.3248-11.7248 13.3248H295.2192C281.6 575.9872 281.6 575.9488 281.6 562.4832l0.0512-384.3584c0-2.816-0.0512-5.632 0.1152-8.448 1.3696-23.3728 18.304-39.5904 41.6512-39.8464 12.0832-0.128 24.1664-0.1792 36.224 0 6.336 0.0768 9.4336-2.624 9.408-8.9984-0.1408-37.1584-0.2304-74.3296-0.384-111.488-0.128-25.8304 10.1376-41.024 32.3456-45.5424 14.592-2.9824 29.6192-2.5088 44.3648 0.1664 15.8976 2.88 30.6176 24.4992 30.3616 38.336-0.6912 39.1296-0.0256 78.272-0.2944 117.4144-0.0512 7.8208 2.752 10.3168 10.3424 10.2016 21.632-0.3584 43.2512-0.1152 64.8704-0.128 13.2864 0 13.8752-0.5504 13.9008-13.7216 0.0384-37.4528-0.0896-74.9056 0.0768-112.3584 0.1024-21.76 13.8112-38.1696 35.008-40.64 11.3152-1.3312 22.8736-2.176 34.3808-0.6784 4.5184 0.5888 8.7168 1.6896 12.8512 3.712 17.5744 8.6144 24.0384 23.6544 24.1152 42.112 0.1792 36.9024 0.0128 73.7792 0.064 110.6688 0.0128 10.3936 0.5504 10.8416 11.0848 10.88 11.52 0.064 23.04-0.2304 34.56 0.1152 18.304 0.5504 38.4128 19.1488 37.6576 36.8-0.64 14.6944 0.6784 29.2096 0.6912 43.8016 0.1024 110.3872 0 220.7616 0.1536 331.136 0 7.04-1.7152 13.9264-0.8576 21.0432zM292.992 601.6384c75.1488-0.0256 150.3232-0.0128 225.4848-0.0256 75.4432 0 150.8864-0.0256 226.3296 0 11.264 0.0128 12.1216 1.3824 8.448 11.8272-20.352 57.7792-55.8848 103.0016-107.2896 135.0656-8.1024 5.056-8.7808 8.576-3.52 16.7808 5.8624 9.1264 11.7248 18.2528 17.4464 27.456 5.4272 8.7296 10.7904 17.4848 15.9488 26.368 2.4192 4.1472 2.3296 8.2688-2.0608 11.328-4.4928 3.1232-8.0128 1.1904-11.008-2.4576-1.4336-1.7536-2.5472-3.7888-3.8272-5.6704-11.8144-17.4848-21.3632-36.4288-33.6384-53.632-3.5072-4.9152-6.5792-5.9136-11.9552-3.4688-7.6928 3.4816-15.5648 6.848-23.68 9.0496-55.936 15.2448-111.2064 14.464-165.312-8.448-5.0176-2.1248-8.4096-1.28-11.3024 3.584-5.3888 9.088-11.1104 17.9584-16.7168 26.9184-6.5024 10.4064-12.992 20.8256-19.584 31.168-2.7008 4.2496-6.464 5.4656-10.9184 2.9696-4.736-2.6624-4.8256-6.592-2.4576-11.008 1.4848-2.7648 2.7904-5.6448 4.4544-8.2944 9.2672-14.72 18.624-29.4016 27.9552-44.096 5.7088-8.9856 5.1328-12.672-3.1616-17.5232-20.6336-12.0704-39.3216-26.56-55.552-44.4544-24.0384-26.5216-42.0736-56.64-53.376-90.88-3.8912-11.776-3.2-12.544 9.2928-12.5568z m323.6352 102.9248c11.9424 0.0768 24.6144-12.4032 24.9856-24.6144 0.3968-12.4928-12.16-25.9328-24.4864-26.24-12.672-0.3072-24.9344 11.904-25.3184 25.1776-0.3456 12.224 12.5824 25.6 24.8192 25.6768z m-199.7056-3.648c11.8528 0.5632 22.528-12.1216 22.4512-25.344-0.064-13.2864-10.6752-25.024-22.8224-25.2544-12.6976-0.2304-24.5504 11.9424-24.6016 25.28-0.9472 16.1024 11.392 24.6784 24.96 25.3184zM895.8592 446.9888c0 24.2304 0.384 48.4608-0.2048 72.6528-0.4224 16.9216-7.1296 29.8624-22.2208 38.0672-11.904 6.464-24.064 5.4272-36.352 5.44-26.7136 0.0384-43.4176-17.92-43.456-46.464-0.0384-39.7696 0-79.5648 0-119.3472-0.0128-40.6528 0-81.3056-0.0256-121.9584-0.0128-16.9344 6.2208-29.6704 20.2112-38.6048 13.12-8.384 27.0976-6.3488 40.96-5.632 4.2368 0.2048 8.96-1.3568 12.672 0.5888 17.9584 9.4592 28.736 23.7184 28.544 46.592-0.448 56.2176-0.128 112.448-0.128 168.6656zM202.5984 563.1872c-6.144-0.0256-12.288 0.0512-18.432 0-26.8928-0.2432-45.9776-23.1936-43.072-52.1856 0.7168-7.1936 0.9728-14.3488 0.9728-21.5552v-102.8736c0-37.7472-0.1024-75.4944 0.064-113.2416 0.064-16.4224 7.4368-27.9552 20.5824-36.3264 13.5424-8.6016 28.032-6.8224 42.1632-5.4656 23.8592 2.2784 38.4 20.672 38.2336 46.4768-0.1024 15.5392-1.2288 31.0784-1.152 46.6048 0.384 64.8064-1.408 129.6384 1.2032 194.432 1.1136 27.7632-23.1552 44.224-40.576 44.1344z"  horiz-adv-x="1024" />

    
    <glyph glyph-name="jianpan" unicode="&#58947;" d="M520.32 729.6c219.136 0 392.3072-59.6864 392.3072-278.8352S771.8912 38.4 552.7424 38.4C333.5936 38.4 128 177.664 128 396.8c0 219.136 173.1712 332.8 392.32 332.8z m126.08-435.2h-230.4a32 32 0 1 1 0-64h230.4a32 32 0 1 1 0 64z m-204.8 140.8a44.8 44.8 0 1 1 0-89.6 44.8 44.8 0 0 1 0 89.6z m-153.6 0a44.8 44.8 0 1 1 0-89.6 44.8 44.8 0 0 1 0 89.6z m294.4 0a44.8 44.8 0 1 1 0-89.6 44.8 44.8 0 0 1 0 89.6z m140.8 0a44.8 44.8 0 1 1 0-89.6 44.8 44.8 0 0 1 0 89.6z m-384 115.2a44.8 44.8 0 1 1 0-89.6 44.8 44.8 0 0 1 0 89.6z m140.8 0a44.8 44.8 0 1 1 0-89.6 44.8 44.8 0 0 1 0 89.6z m140.8 0a44.8 44.8 0 1 1 0-89.6 44.8 44.8 0 0 1 0 89.6z m153.6 0a44.8 44.8 0 1 1 0-89.6 44.8 44.8 0 0 1 0 89.6z"  horiz-adv-x="1024" />

    
    <glyph glyph-name="qiepian21x" unicode="&#58941;" d="M512 788.064865c248.901189 0 445.578378-67.877362 445.578378-317.074681C957.578378 221.790097 797.729211 2.075676 548.828022 2.075676S66.421622 160.424822 66.421622 409.627676C66.421622 658.822227 263.098811 788.064865 512 788.064865z m200.501968-257.494487l-119.417773-10.884843a26.806659 26.806659 0 0 1-22.777081-17.615567 26.945038 26.945038 0 0 1 6.2464-28.165536l35.341837-35.458075-113.68614-114.034854-75.770465 76.025081a26.668281 26.668281 0 0 1-18.941232 7.901405 26.668281 26.668281 0 0 1-18.944-7.904173l-94.739373-95.054875c-10.156973-10.5472-10.010292-27.315892 0.326573-37.6832a26.729168 26.729168 0 0 1 37.555891-0.326573l75.800909 76.047221 75.421751-75.698508a26.676584 26.676584 0 0 1 19.040865-8.258422c7.198443-0.063654 14.12013 2.786941 19.193081 7.909709l132.624605 133.064648 35.341838-35.455308a26.729168 26.729168 0 0 1 28.071438-6.265773 26.867546 26.867546 0 0 1 17.557449 22.851806l10.848864 119.813535a26.933968 26.933968 0 0 1-7.738119 21.429275 26.743005 26.743005 0 0 1-21.357318 7.763027z"  horiz-adv-x="1024" />

    
    <glyph glyph-name="qiepian3beifen1x" unicode="&#58942;" d="M512 788.064865c248.901189 0 445.578378-67.877362 445.578378-317.074681C957.578378 221.790097 797.729211 2.075676 548.828022 2.075676S66.421622 160.424822 66.421622 409.627676C66.421622 658.822227 263.098811 788.064865 512 788.064865z m66.405016-244.334703a58.105081 58.105081 0 0 1-14.371978-56.818162 29.120346 29.120346 0 0 1-5.778681-4.513903l-55.215741-55.185297-71.951221 71.918011 10.295351 10.295351-51.366054 30.808562-20.587935-20.585167 30.847308-51.366054 10.292584 10.295351 71.91801-71.918011-63.319178-63.316411a58.105081 58.105081 0 0 1-71.220584-71.220583l25.334314 25.334313a29.064995 29.064995 0 1 0 41.106681-41.106681l-25.334314-25.334313a58.105081 58.105081 0 0 1 71.220584 71.220583l63.316411 63.319179 41.070703-41.106681a29.051157 29.051157 0 0 1 0-41.103914l41.106681-41.106681a29.051157 29.051157 0 0 1 41.103913 0l20.587935 20.554724a29.051157 29.051157 0 0 1 0 41.103914l-41.139891 41.103913a29.051157 29.051157 0 0 1-41.103914 0l-41.070703 41.106681 55.18253 55.215741a29.120346 29.120346 0 0 1 4.513903 5.778681 58.105081 58.105081 0 0 1 72.216908 70.918919l-25.334314-25.331546c-11.349795-11.352562-29.754119-11.352562-41.103913 0-11.352562 11.349795-11.352562 29.751351 0 41.103914l25.331546 25.334313a58.105081 58.105081 0 0 1-56.546941-15.398746z"  horiz-adv-x="1024" />

    
    <glyph glyph-name="qiepian31x" unicode="&#58943;" d="M512 788.064865c248.901189 0 445.578378-67.877362 445.578378-317.074681C957.578378 221.790097 797.729211 2.075676 548.828022 2.075676S66.421622 160.424822 66.421622 409.627676C66.421622 658.822227 263.098811 788.064865 512 788.064865z m160.023524-233.004281c-8.219676 6.932757-19.965232 7.929081-34.990356 2.947459-15.152432-5.106162-28.766097-13.616432-40.763503-25.616605l-37.896303-37.907373-157.529946 37.658292c-2.573838 0.788757-4.937341 0.166054-7.140324-1.909622l-30.340843-30.351913c-1.785081-1.785081-2.449297-3.819243-2.158703-6.393081 0.498162-2.532324 1.826595-4.441946 4.026811-5.687352l120.12627-66.26387-61.307157-61.323762-45.911178 12.539848c-0.332108 0.166054-0.954811 0.249081-1.909622 0.249081-2.158703 0-3.985297-0.747243-5.396756-2.158702l-22.705125-22.959741c-1.616259-1.909622-2.324757-3.860757-2.158703-5.936432 0.376389-2.449297 1.372714-4.317405 3.113514-5.396757l59.690897-44.715589 44.831827-59.704735c1.411459-1.785081 3.2768-2.822919 5.684584-3.113514h0.498162c2.158703 0 3.985297 0.747243 5.396757 2.158703l22.749405 22.8352c2.075676 2.200216 2.695611 4.608 1.909622 7.306378l-12.537081 45.919481 61.307157 61.323763 66.167005-120.278487c0.954811-2.034162 2.573838-3.279568 4.981622-3.77773 0.456649-0.166054 0.996324-0.249081 1.619027-0.249081 1.868108 0 3.404108 0.456649 4.483459 1.41146l30.340843 22.710659c2.698378 2.158703 3.653189 4.815568 2.864433 7.804541l-37.97933 164.869535 38.186897 38.153686c11.997405 12.000173 20.590703 25.619373 25.611071 40.771806 5.023135 15.193946 4.068324 26.862011-2.864433 35.084454z"  horiz-adv-x="1024" />

    
    <glyph glyph-name="qiepian1x" unicode="&#58945;" d="M506.464865 788.064865c248.901189 0 445.578378-67.877362 445.578378-317.074681C952.043243 221.790097 792.194076 2.075676 543.292886 2.075676S60.886486 160.424822 60.886486 409.627676C60.886486 658.822227 257.563676 788.064865 506.464865 788.064865z m-71.071135-321.037838h-3.467762l-1.577514-0.246313c-34.060454-5.537903-64.631005-24.48467-83.422789-53.524757-19.082378-29.4912-25.154422-65.048908-16.480865-99.743135C344.321384 259.744519 394.630227 220.713514 449.273081 220.713514h3.467762l1.61626 0.049816c34.943308 1.32013 67.246357 17.70413 89.456086 44.181448 22.552908 26.886919 32.96173 61.578378 27.755935 96.272606-0.866249 8.670789-6.938292 24.282638-25.154421 24.282638h-4.336779l-0.860713-0.121773c-6.578508-1.037838-12.293535-4.430876-15.617384-9.418033-6.938292-8.673557-5.203027-19.948627-5.203027-20.814875 2.601514-19.079611-2.601514-38.161989-13.879351-53.773838-12.144086-15.609081-28.622184-25.151654-48.570811-26.884152-2.169773 0-4.336778-0.60333-6.503784-0.802594l-1.300757-0.066422-1.084886 0.008303c-34.223741 0.517535-63.164195 25.4976-69.172584 58.968562-3.47053 19.079611 0.866249 38.161989 12.141319 53.773838 11.277838 15.609081 28.624951 26.017903 46.838313 28.619416 0.866249 0 11.27507 0.869016 18.213363 9.539805 3.47053 4.336778 6.938292 11.27507 5.203027 21.683892-1.732497 13.007568-12.141319 20.814876-26.886919 20.814876z m245.380843 93.975524c-14.731762 11.27507-42.465557 16.480865-90.131373-19.07961-76.265859-57.2416-133.463178-165.649989-136.061924-170.855784L451.113514 364.128865l13.865513-7.804541 3.467762 6.938292 0.005535 0.041514c0.304432 1.383784 13.240043 24.614746 33.792 55.464821h0.869017l1.563675-0.650378c32.303049-13.251114 61.218595-13.887654 85.099935-1.084887 31.198789 16.478097 44.198054 50.303308 48.532065 63.313644 25.99853 5.203027 43.331805 26.884151 48.532065 46.832778 4.334011 15.609081 2.601514 27.753168-6.066508 33.822443z"  horiz-adv-x="1024" />

    
    <glyph glyph-name="yun" unicode="&#59103;" d="M955.733333 765.155556c-221.866667-17.066667-375.466667-164.977778-375.466666-369.777778h85.333333c0 170.666667 130.844444 284.444444 324.266667 284.444444h22.755555c221.866667-11.377778 392.533333-187.733333 392.533334-403.911111 0-221.866667-176.355556-403.911111-398.222223-403.911111H352.711111C153.6-116.622222 0 31.288889 0 213.333333c0 153.6 113.777778 284.444444 267.377778 324.266667C278.755556 736.711111 449.422222 896 659.911111 896c119.466667 0 221.866667-51.2 295.822222-130.844444z"  horiz-adv-x="1422" />

    
    <glyph glyph-name="QX-baiduyun" unicode="&#59281;" d="M431.081844 577.29445a114.001881 114.001881 0 0 1-33.505174-80.85795c0-29.23048 11.168391-58.521167 33.505174-80.827845a114.242709 114.242709 0 0 1 195.130762 80.827845 114.302916 114.302916 0 0 1-195.130762 80.85795zM220.237065 330.957667a102.652869 102.652869 0 0 1 144.677328-145.610536l0.963312 0.933208a102.652869 102.652869 0 0 1-145.64064 144.677328zM853.343368 896H170.656632A170.656632 170.656632 0 0 1 0 725.343368v-682.656632a170.656632 170.656632 0 0 1 170.656632-170.656633h682.686736a170.656632 170.656632 0 0 1 170.656632 170.656633V725.343368A170.656632 170.656632 0 0 1 853.343368 896z m24.534337-784.496707a207.412982 207.412982 0 0 0-292.455316-0.963312l-0.963311 0.963312-0.933208 0.933207a52.50047 52.50047 0 0 0 0.933208 73.211666 52.50047 52.50047 0 0 0 74.144873 0 102.622766 102.622766 0 1 1 0 145.098777l-127.488241-127.488241-91.574788-91.574789a207.503293 207.503293 0 1 0-146.393227 354.197555 220.176858 220.176858 0 0 0 62.555033 186.73189 220.869238 220.869238 0 0 0 374.908749-186.912511c18.664158 0.030103 37.388523-2.408278 55.510818-7.375353a207.503293 207.503293 0 0 0 91.75541-346.822201z"  horiz-adv-x="1024" />

    
    <glyph glyph-name="QX-tianyiyun" unicode="&#59294;" d="M853.343368 896H170.656632A170.656632 170.656632 0 0 1 0 725.343368v-682.656632a170.656632 170.656632 0 0 1 170.656632-170.656633h682.686736a170.656632 170.656632 0 0 1 170.656632 170.656633V725.343368A170.656632 170.656632 0 0 1 853.343368 896z m-97.535278-769.655691c-66.528692 0-127.458137 38.773283-160.722483 94.193791 0 0 0 5.569144-5.539041 5.569144-5.53904 22.156162-5.53904 44.342427-5.53904 60.929445h-77.57667v22.156161l99.732832 105.301976 116.380056-99.732832v-22.156161h-55.420508v-38.803387c5.53904-11.078081 16.617121-22.126058 27.695202-27.695202l5.569144-5.569144c16.617121-11.078081 33.234243-16.617121 55.420508-16.617122a99.341486 99.341486 0 0 1 99.732832 99.732832c0 27.695202-11.078081 55.390405-33.234243 72.037629l-11.047977 11.078081c-5.569144 5.53904-5.569144 5.53904-11.108185 5.539041 0 11.108184-11.078081 16.647225-22.126058 16.647225h-38.803387c5.53904 5.53904 5.53904 16.617121 5.539041 27.695202 0 27.695202-16.617121 49.881468-38.773283 60.929445-5.53904 0-5.53904 5.53904-11.078081 5.53904-5.569144 5.569144-16.617121 5.569144-27.695202 5.569144-27.725306 0-49.881468-16.617121-60.959549-38.803387-5.53904 33.234243-27.695202 60.959548-55.420508 83.115711-16.617121 16.617121-49.851364 27.695202-77.546566 27.695202-44.342427 0-83.11571-16.617121-105.301976-49.881468-22.156162-27.695202-33.234243-55.420508-38.803386-88.65475-16.617121 11.078081-38.803387 16.617121-60.959549 16.617121-11.078081 0-22.156162 0-27.695202-5.53904-55.420508-11.078081-94.193791-60.959548-94.193791-116.380057s38.773283-105.241769 94.193791-121.888993c11.108184 0 22.156162-5.569144 38.803387-5.569144 11.078081 0 288.150517-5.53904 288.150517-5.539041 16.647225-38.803387 38.773283-49.851364 77.57667-66.498588H262.652869c-99.732832 11.078081-177.309501 94.223895-177.309501 193.926622a198.622766 198.622766 0 0 0 199.465663 199.465663 223.548448 223.548448 0 0 0 193.926623 110.841016c60.929445 0 121.919097-27.695202 160.69238-66.498588h27.725306c66.498589 0 121.888993-38.773283 144.075258-99.732832 77.546566-22.156162 127.39793-88.654751 127.397931-166.231421 0.030103-99.702728-83.085607-182.788335-182.818439-182.788334z"  horiz-adv-x="1024" />

    
    <glyph glyph-name="zhuyi" unicode="&#58946;" d="M512 725.504A341.504 341.504 0 1 1 853.504 384 341.504 341.504 0 0 1 512 725.504z m0-530.944a37.888 37.888 0 1 0 37.888 37.888 37.888 37.888 0 0 0-37.888-37.888z m18.944 153.6c0-20.992-8.704-37.888-18.944-37.888s-18.944 16.896-18.944 37.888l-18.944 168.448a37.888 37.888 0 1 0 75.776 0z"  horiz-adv-x="1024" />

    
    <glyph glyph-name="liuyan" unicode="&#58915;" d="M628.48 896h1008c229.744 0 416-186.24 416-416v-176c0-229.76-186.256-416-416-416h-1008C519.36-112 11.536-112.75199999999995 0-112c198.88 45.696 212.48 295.36 212.48 416V480c0 229.76 186.24 416 416 416z m28.48-337.344h46.24v-25.568H634.08c8.16 7.616 15.776 15.776 22.848 25.568z m-26.672-25.568h-26.656v-44.608h44.608c-2.176-16.864-6.528-29.92-12.512-38.624-8.704-12.512-23.392-23.392-43.52-32.64l31.552-41.344c26.112 14.144 44.064 31.008 54.944 49.504 7.616 14.144 13.056 35.36 15.776 63.104h28.832v-38.08c0-6.528-4.352-11.968-12.512-16.32l19.584-41.344a788.4 788.4 0 0 1 96.832 34.272l-8.704 40.256c-15.776-6.528-31.552-11.968-47.328-17.408V488.48h50.048v44.608h-66.912v25.568h59.296v42.976h-59.296V638.0799999999999H703.2v-36.448h-24.48c2.176 7.072 4.352 14.688 6.528 22.304l-42.976 7.072c-7.072-26.112-20.672-47.328-40.256-63.104l28.288-34.816z m250.24 25.568h52.224v-25.568h-72.896c7.616 7.616 14.144 15.776 20.672 25.568zM852.8 533.088h-17.952v-44.608h48.416c-2.72-11.968-6.528-21.76-11.424-28.288-8.16-10.88-21.76-19.584-41.344-27.2l31.008-39.712c25.024 12.512 42.976 26.656 53.856 42.976 7.072 11.968 11.968 29.376 14.688 52.224h21.216v-43.52c0-11.968 3.264-21.76 10.336-30.464 6.528-8.16 16.864-12.512 29.92-12.512h38.08c16.864 0.544 28.832 3.264 35.904 8.16 5.984 4.896 10.88 22.304 15.232 51.68l-42.432 14.688c-1.632-17.408-3.808-27.2-7.072-28.832a21.44 21.44 0 0 0-10.88-2.72h-13.6c-4.896 0-7.072 3.808-7.072 11.424V488.48h69.088v44.608H983.36v25.568h71.264v42.976H983.36V638.0799999999999h-50.592v-36.448h-32.64c2.176 7.616 4.352 15.232 6.528 23.936l-42.976 7.072c-6.528-28.288-18.496-50.592-36.992-66.912l26.112-32.64z m163.744-145.248h-356.32v-164.288h53.856v114.24h248.064v-108.8h54.4V387.84z m-144.704-152.32l-28.288-42.976a1285.28 1285.28 0 0 0 206.72-59.84l30.464 47.872c-63.104 21.76-132.736 39.712-208.896 54.944z m-51.68 81.6c-7.616-35.904-27.2-64.736-59.84-85.408-32.096-19.584-85.408-34.816-159.392-45.152l22.848-53.312c87.04 15.232 147.424 35.904 181.696 62.016 38.624 29.376 62.016 68.544 69.632 116.416l-54.944 5.44z m536.384 292.672H1163.952v-373.184l-37.536-7.616 15.776-54.4c93.024 20.672 175.712 42.432 247.52 66.368v53.856l-33.184-10.336V609.7919999999999zM1220 248.57600000000002v81.056h81.6v-60.928c-26.112-6.528-53.312-13.6-81.6-20.128z m0 131.648v65.824h81.6v-65.824h-81.6z m0 116.96v60.928h81.6v-60.928h-81.6z m221.408 139.264v-103.36h-59.84v-54.4h59.84v-4.352c-1.088-140.352-34.272-242.08-99.008-305.184l42.976-38.08c73.44 72.352 110.976 186.592 112.608 343.264v4.352H1560c-1.088-144.16-2.72-228.48-5.984-252.96-3.808-23.936-17.408-35.904-40.256-35.904-14.144 0-30.464 1.088-49.504 2.176l13.6-49.504c21.216-1.632 36.448-2.72 45.152-2.72 50.048 0 77.792 20.128 84.32 60.384 5.44 42.432 8.16 153.408 8.16 332.928h-117.504v103.36h-56.576z"  horiz-adv-x="2064" />

    
    <glyph glyph-name="GroupCopy6" unicode="&#58938;" d="M390.095238-125.301841A372.335069 372.335069 0 0 0 434.12182-95.492063H32.507937a32.507937 32.507937 0 0 0-32.507937 32.507936V863.492063a32.507937 32.507937 0 0 0 32.507937 32.507937h1321.989417a32.507937 32.507937 0 0 0 32.507937-32.507937v-926.47619a32.507937 32.507937 0 0 0-32.507937-32.507936h-401.613883a372.335069 372.335069 0 0 0 44.026582-29.809778h-90.875937c-59.559958 32.383323-134.907937 51.725545-216.84419 51.725545-81.936254 0-157.284233-19.342222-216.838773-51.725545H390.095238zM81.269841 852.656085a32.507937 32.507937 0 0 1-32.507936-32.507937v-763.936508a32.507937 32.507937 0 0 1 32.507936-32.507936h1229.883598a32.507937 32.507937 0 0 1 32.507937 32.507936V820.148148a32.507937 32.507937 0 0 1-32.507937 32.507937H81.269841zM775.509333 444.074667l39.161228-29.002498a37.925926 37.925926 0 0 0-0.574307-61.369566l-100.682497-71.696254a37.925926 37.925926 0 0 0-44.806773 0.595979L574.306878 353.567153a37.925926 37.925926 0 0 0 0.113778 60.692318l38.066794 28.422772 56.119534-42.238645a37.925926 37.925926 0 0 1 44.806773-0.595979l62.090158 44.22163zM718.95636 617.081905l97.41545-72.135111a37.925926 37.925926 0 0 0-0.568889-61.374984L715.120423 411.880974a37.925926 37.925926 0 0 0-44.806772 0.595978l-94.300106 70.975662a37.925926 37.925926 0 0 0 0.10836 60.686899l97.577989 72.855704a37.925926 37.925926 0 0 0 45.256466 0.092106z"  horiz-adv-x="1387" />

    
    <glyph glyph-name="sousuo" unicode="&#58978;" d="M467.92892-39.905986a467.92892 467.92892 0 1 0 331.010811 136.918108 466.424325 466.424325 0 0 0-331.010811-136.918108zM467.92892 745.492393a317.46946 317.46946 0 1 1 225.689189-93.284865 315.964865 315.964865 0 0 1-225.689189 93.284865zM771.556109-26.515094l151.587906 151.587905 101.033527-101.108757-151.587905-151.587905z"  horiz-adv-x="1024" />

    
    <glyph glyph-name="liuyanbt" unicode="&#942651;" d="M512 857.6C249.6 857.6 32 672 32 435.2c0-134.4 70.4-249.6 179.2-326.4v-211.2l211.2 128c32-6.4 57.6-6.4 89.6-6.4 262.4 0 480 185.6 480 422.4C992 665.6 774.4 857.6 512 857.6z m147.2-576H364.8c-19.2 0-32 12.8-32 32s12.8 32 32 32h300.8c19.2 0 32-12.8 32-32-6.4-12.8-19.2-32-38.4-32z m64 185.6H300.8c-19.2 0-32 12.8-32 32s12.8 32 32 32h422.4c19.2 0 32-12.8 32-32-6.4-19.2-19.2-32-32-32z"  horiz-adv-x="1024" />

    
    <glyph glyph-name="store101" unicode="&#58944;" d="M775.909118 595.373706c-0.168845 0.168845-0.344853 0.325411-0.515745 0.490163l0.013303 0.013303-24.816149 24.816149-10.127641-10.127641 10.127641 10.127641-24.816149 24.816149-0.013303-0.013303c-0.164752 0.170892-0.321318 0.3469-0.490163 0.515745-13.983451 13.983451-36.654755 13.983451-50.638206 0-0.168845-0.168845-0.325411-0.34383-0.490163-0.515745l-0.013303 0.01228-24.817172-24.816149 43.48838-43.487357 7.149826-7.150849 0 0 0 0 0.001023 0 0 0 14.302722-14.301699 11.011776-11.012799c0.002047-0.001023 0.00307-0.00307 0.005117-0.005117s0.00307-0.00307 0.005117-0.005117l25.313475-25.314498 24.816149 24.817172-0.01228 0.01228c0.170892 0.164752 0.3469 0.321318 0.515745 0.490163C789.892569 558.717928 789.892569 581.390255 775.909118 595.373706zM394.171718 172.834763l-92.458844 92.458844 322.655895 322.655895 92.458844-92.458844-322.655895-322.655895ZM367.592341 157.185658c-1.690498 6.3056-7.84772 10.214622-14.155366 9.24453l-57.221122 57.221122c1.729384 6.722085-2.269689 13.597666-8.988704 15.398681l-3.461838 0.927114c-6.760971 1.812272-13.710229-2.199081-15.522501-8.962098l-22.562833-85.479666 0.001023-0.001023c-4.131079-15.108063-5.107311-26.982484-0.778734-31.312084 4.327553-4.327553 16.206068-3.347228 31.310037 0.782828l0.004093-0.004093 0.622169 0.172938c0.169868 0.047072 0.339737 0.094144 0.509605 0.142239l82.210209 22.885174c6.760971 1.812272 10.773346 8.762553 8.962098 15.522501L367.592341 157.185658z"  horiz-adv-x="1024" />

    
    <glyph glyph-name="liwuhe" unicode="&#58937;" d="M391.129973-128a373.800743 373.800743 0 0 0 44.165093 29.877984H32.594164a32.594164 32.594164 0 0 0-32.594164 32.594165V863.405836a32.594164 32.594164 0 0 0 32.594164 32.594164h1325.496022a32.594164 32.594164 0 0 0 32.594164-32.594164v-928.933687a32.594164 32.594164 0 0 0-32.594164-32.594165h-402.700902a373.800743 373.800743 0 0 0 44.165093-29.877984h-91.10069c-59.755968 32.594164-135.265782 51.824721-217.29443 51.824721s-157.538462-19.393528-217.294429-51.824721zM81.485411 852.541114a32.594164 32.594164 0 0 1-32.594164-32.594164v-765.962865a32.594164 32.594164 0 0 1 32.594164-32.594165h1233.145889a32.594164 32.594164 0 0 1 32.594164 32.594165V819.94695a32.594164 32.594164 0 0 1-32.594164 32.594164zM679.045093 513.779098v-60.136233h-124.944297v48.239363a13.635225 13.635225 0 0 0 13.743872 13.85252H624.721485c-15.264934 3.205093-26.781538 9.723926-27.161803 21.729443-0.434589 14.232785 15.645199 37.157347 39.167321 31.942281s41.177294-24.174005 54.323607-40.145146c13.091989 16.297082 31.670663 37.374642 56.985464 40.688382 21.131883 2.661857 38.624085-18.361379 36.342494-32.268223-1.901326-12.168488-13.635225-18.795968-28.519894-21.729443h56.279257a13.635225 13.635225 0 0 0 13.580902-14.01549v-48.239364h-124.944297l-0.271618 60.733793z m-39.873528 42.91565c-11.679576 4.617507-18.52435-0.325942-23.467798-8.474483-2.661857-4.563183-5.432361-10.864721-1.303767-15.101963 11.244987-11.570928 42.155119-10.864721 62.852414-8.58313-9.615279 12.168488-21.620796 25.74939-37.917878 32.159576z m127.932095-23.522122c8.039894 10.267162-7.713952 31.61634-24.662917 23.739416a111.906631 111.906631 0 0 1-38.026525-32.159575 190.621538 190.621538 0 0 1 26.129655-0.543236c10.864721 0.434589 30.258249 1.195119 36.45114 8.963395zM680.077241 309.30504h-101.965411a12.440106 12.440106 0 0 0-12.440106 12.494429V443.918939h114.459841V309.30504z m134.070664 12.494429a12.440106 12.440106 0 0 0-12.440107-12.494429h-101.965411V443.918939h114.405518z"  horiz-adv-x="1390" />

    
    <glyph glyph-name="gjux" unicode="&#58935;" d="M391.129973-128a373.800743 373.800743 0 0 0 44.165093 29.877984H32.594164a32.594164 32.594164 0 0 0-32.594164 32.594165V863.405836a32.594164 32.594164 0 0 0 32.594164 32.594164h1325.496022a32.594164 32.594164 0 0 0 32.594164-32.594164v-928.933687a32.594164 32.594164 0 0 0-32.594164-32.594165h-402.700902a373.800743 373.800743 0 0 0 44.165093-29.877984h-91.10069c-59.755968 32.594164-135.265782 51.824721-217.29443 51.824721s-157.538462-19.393528-217.294429-51.824721zM81.485411 852.541114a32.594164 32.594164 0 0 1-32.594164-32.594164v-765.962865a32.594164 32.594164 0 0 1 32.594164-32.594165h1233.145889a32.594164 32.594164 0 0 1 32.594164 32.594165V819.94695a32.594164 32.594164 0 0 1-32.594164 32.594164z m753.08817-299.866313a21.023236 21.023236 0 0 0 7.442334-16.297082 47.913422 47.913422 0 0 0-6.410186-21.240531q-46.98992-88.656127-65.840212-105.985358A44.110769 44.110769 0 0 0 738.801061 396.222812a41.611883 41.611883 0 0 0-30.692838 13.037665 42.698355 42.698355 0 0 0-12.766048 30.910133 38.841379 38.841379 0 0 0 13.037666 29.877984L798.557029 551.588329a26.835862 26.835862 0 0 0 18.415703 7.605305 25.260477 25.260477 0 0 0 17.600849-6.518833z m-128.095066-157.81008a57.202759 57.202759 0 0 1 21.186206-10.375809L727.93634 374.493369a60.84244 60.84244 0 0 0-18.252733-47.152892 67.252626 67.252626 0 0 0-48.891246-18.252732 70.62069 70.62069 0 0 0-30.638515 6.301539 55.138462 55.138462 0 0 0-21.729443 17.383554 79.747056 79.747056 0 0 0-12.168488 24.880212 107.234801 107.234801 0 0 0-4.07427 29.932308l5.812626-4.07427c2.879151-2.064297 5.812626-4.074271 8.7461-6.029921a90.992042 90.992042 0 0 1 8.311512-4.997772 16.297082 16.297082 0 0 1 6.46451-2.281591 7.550981 7.550981 0 0 1 7.768275 4.997772 65.677241 65.677241 0 0 0 8.039894 15.590875 47.641804 47.641804 0 0 0 9.77825 10.321485 41.448912 41.448912 0 0 0 12.385782 6.46451 73.282546 73.282546 0 0 0 14.504403 3.47671 173.835544 173.835544 0 0 0 17.600849 1.466738 54.323607 54.323607 0 0 1 14.884669-17.655173z"  horiz-adv-x="1390" />

    
    <glyph glyph-name="liwu" unicode="&#58936;" d="M391.129973-128a373.800743 373.800743 0 0 0 44.165093 29.877984H32.594164a32.594164 32.594164 0 0 0-32.594164 32.594165V863.405836a32.594164 32.594164 0 0 0 32.594164 32.594164h1325.496022a32.594164 32.594164 0 0 0 32.594164-32.594164v-928.933687a32.594164 32.594164 0 0 0-32.594164-32.594165h-402.700902a373.800743 373.800743 0 0 0 44.165093-29.877984h-91.10069c-59.755968 32.594164-135.265782 51.824721-217.29443 51.824721s-157.538462-19.393528-217.294429-51.824721zM81.485411 852.541114a32.594164 32.594164 0 0 1-32.594164-32.594164v-765.962865a32.594164 32.594164 0 0 1 32.594164-32.594165h1233.145889a32.594164 32.594164 0 0 1 32.594164 32.594165V819.94695a32.594164 32.594164 0 0 1-32.594164 32.594164z m597.559682-370.649973a17.709496 17.709496 0 0 1-5.432361 11.842546c17.220584 22.598621 58.289231 28.030981 61.874589 15.156286s4.67183-44.165093 1.521061-49.543129c-3.856976-6.518833-39.764881-3.748329-61.331353 9.560954a19.284881 19.284881 0 0 1 3.368064 11.244987 60.84244 60.84244 0 0 0 44.382387 8.746101c-21.892414 6.953422-44.382387-7.007745-44.382387-7.007745zM722.123714 390.790451c-21.186207 5.812626-44.219416 48.891247-53.943343 69.045305a12.711724 12.711724 0 0 1 1.901327 1.575385 95.826844 95.826844 0 0 1 36.125199-12.874695c11.570928-10.593103 22.43565-19.502175 27.161803-20.045412-5.975597-10.864721-11.89687-29.606366-11.244986-37.700583z m-132.115014 118.099522c3.585358 12.874695 44.654005 7.442334 61.874589-15.156286a17.709496 17.709496 0 0 1-5.432361-11.842546s-22.544297 13.961167-44.43671 7.007745a60.84244 60.84244 0 0 0 44.43671-8.746101 19.284881 19.284881 0 0 1 3.368064-11.244987c-21.729443-13.309284-57.474377-16.297082-61.331353-9.560954-3.150769 5.378037-1.792679 37.211671 1.521061 49.543129zM613.856764 448.536446a95.826844 95.826844 0 0 1 36.125199 12.874695 12.711724 12.711724 0 0 1 1.901326-1.575385c-9.723926-20.154058-32.594164-63.232679-53.943342-69.045305 0.651883 8.094218-5.432361 26.835862-11.244987 37.700583 4.563183 0.325942 15.427905 9.452308 27.161804 20.045412z m59.755968 31.887957a12.49443 12.49443 0 0 0-10.864721-13.580902h-5.432361a13.906844 13.906844 0 0 0 0 27.161804h5.432361a12.49443 12.49443 0 0 0 10.864721-13.580902z m-92.784721 26.781539a116.958727 116.958727 0 0 1-2.933475-18.632998H575.830239v36.016552a34.549814 34.549814 0 0 0 34.33252 34.604138H646.450928v-51.879045a76.05305 76.05305 0 0 1-41.394588 13.526578 35.201698 35.201698 0 0 1-13.961168-2.498886 17.274907 17.274907 0 0 1-10.267161-11.136339z m211.862069 51.987692a34.060902 34.060902 0 0 0 33.028753-34.604138V488.572944h-79.96435a117.990875 117.990875 0 0 1-2.824828 18.632998 17.003289 17.003289 0 0 1-9.94122 10.864721 33.137401 33.137401 0 0 1-13.526578 2.498886 72.73931 72.73931 0 0 1-40.416764-13.417931V559.193634z m-48.891247-105.822387a21.729443 21.729443 0 0 1 2.335915 8.039894H825.718833v-118.153847a33.73496 33.73496 0 0 0-33.246048-33.952254H679.045093V431.424509c2.498886-4.237241 5.432361-8.58313 7.931247-12.766047 10.267162-14.830345 21.186207-28.682865 35.962228-33.246048l11.679575-3.31374-1.249443 12.331459v0.706207a57.637347 57.637347 0 0 0 3.096446 15.37358 102.182706 102.182706 0 0 0 7.062069 17.600849l5.975597 11.190663-12.114165 1.466738a48.565305 48.565305 0 0 0-7.768276 5.432361 29.334748 29.334748 0 0 1 3.9113 0.706206 15.156286 15.156286 0 0 1 10.104191 6.46451z m-158.516287-12.440106L575.830239 439.681698v21.729443h1.738355a21.240531 21.240531 0 0 1 2.064297-7.931247 13.363607 13.363607 0 0 1 8.963395-6.573157 25.369125 25.369125 0 0 1 3.531035-0.706206l-0.706207-0.651884a56.550875 56.550875 0 0 0-4.943448-3.802652z m16.297083-56.387905c15.264934 4.508859 26.50992 18.198408 37.0487 32.865783 2.770504 4.019947 5.432361 8.094218 7.931247 12.168488V309.30504h-36.28817a34.060902 34.060902 0 0 0-34.33252 33.571989V434.249337l4.182918-7.496658a103.214854 103.214854 0 0 0 7.279363-17.383554 58.017613 58.017613 0 0 0 3.205093-15.21061v-0.706207l-1.032149-12.168488z"  horiz-adv-x="1390" />

    
    <glyph glyph-name="GroupCopy" unicode="&#58923;" d="M390.095238-125.301841A372.335069 372.335069 0 0 0 434.12182-95.492063H32.507937a32.507937 32.507937 0 0 0-32.507937 32.507936V863.492063a32.507937 32.507937 0 0 0 32.507937 32.507937h1321.989417a32.507937 32.507937 0 0 0 32.507937-32.507937v-926.47619a32.507937 32.507937 0 0 0-32.507937-32.507936h-401.613883a372.335069 372.335069 0 0 0 44.026582-29.809778h-90.875937c-59.559958 32.383323-134.907937 51.725545-216.84419 51.725545-81.936254 0-157.284233-19.342222-216.838773-51.725545H390.095238zM688.084656 587.174603c-83.783788 0-151.703704-67.919915-151.703704-151.703704s67.919915-151.703704 151.703704-151.703703 151.703704 67.919915 151.703704 151.703703-67.919915 151.703704-151.703704 151.703704z m82.748952-179.28127h-96.537735V518.214434h27.577566V435.470899h68.960169v-27.577566z"  horiz-adv-x="1387" />

    
    <glyph glyph-name="Group" unicode="&#58924;" d="M390.095238-125.301841A372.335069 372.335069 0 0 0 434.12182-95.492063H32.507937a32.507937 32.507937 0 0 0-32.507937 32.507936V863.492063a32.507937 32.507937 0 0 0 32.507937 32.507937h1321.989417a32.507937 32.507937 0 0 0 32.507937-32.507937v-926.47619a32.507937 32.507937 0 0 0-32.507937-32.507936h-401.613883a372.335069 372.335069 0 0 0 44.026582-29.809778h-90.875937c-59.559958 32.383323-134.907937 51.725545-216.84419 51.725545-81.936254 0-157.284233-19.342222-216.838773-51.725545H390.095238zM81.269841 852.656085a32.507937 32.507937 0 0 1-32.507936-32.507937v-763.936508a32.507937 32.507937 0 0 1 32.507936-32.507936h1229.883598a32.507937 32.507937 0 0 1 32.507937 32.507936V820.148148a32.507937 32.507937 0 0 1-32.507937 32.507937H81.269841z m606.814815-265.481482c83.783788 0 151.703704-67.919915 151.703704-151.703704s-67.919915-151.703704-151.703704-151.703703-151.703704 67.919915-151.703704 151.703703 67.919915 151.703704 151.703704 151.703704z m82.748952-179.28127V435.470899h-68.960169V518.219852h-27.577566V407.893333h96.537735z"  horiz-adv-x="1387" />

    
    <glyph glyph-name="GroupCopy1" unicode="&#58925;" d="M390.095238-125.301841A372.335069 372.335069 0 0 0 434.12182-95.492063H32.507937a32.507937 32.507937 0 0 0-32.507937 32.507936V863.492063a32.507937 32.507937 0 0 0 32.507937 32.507937h1321.989417a32.507937 32.507937 0 0 0 32.507937-32.507937v-926.47619a32.507937 32.507937 0 0 0-32.507937-32.507936h-401.613883a372.335069 372.335069 0 0 0 44.026582-29.809778h-90.875937c-59.559958 32.383323-134.907937 51.725545-216.84419 51.725545-81.936254 0-157.284233-19.342222-216.838773-51.725545H390.095238z m418.030392 623.122963c0 55.832381-49.742561 111.025439-110.868318 111.025439-61.120339 0-110.797884-55.193058-110.797883-111.020021h29.278814c0 46.513439 35.807492 82.060868 81.584085 82.060867 45.711577 0 81.584085-35.547429 81.584085-82.060867h29.219217zM845.206349 450.240339c0 15.966815-13.111534 28.959153-29.219217 28.959153h-234.132994c-16.113101 0-29.219217-12.992339-29.219217-28.959153v-137.508572c0-15.972233 13.106116-28.959153 29.219217-28.959153h234.067978c16.113101 0 29.219217 12.986921 29.219217 28.959153v137.508572H845.206349z"  horiz-adv-x="1387" />

    
    <glyph glyph-name="Group1" unicode="&#58926;" d="M390.095238-125.301841A372.335069 372.335069 0 0 0 434.12182-95.492063H32.507937a32.507937 32.507937 0 0 0-32.507937 32.507936V863.492063a32.507937 32.507937 0 0 0 32.507937 32.507937h1321.989417a32.507937 32.507937 0 0 0 32.507937-32.507937v-926.47619a32.507937 32.507937 0 0 0-32.507937-32.507936h-401.613883a372.335069 372.335069 0 0 0 44.026582-29.809778h-90.875937c-59.559958 32.383323-134.907937 51.725545-216.84419 51.725545-81.936254 0-157.284233-19.342222-216.838773-51.725545H390.095238zM81.269841 852.656085a32.507937 32.507937 0 0 1-32.507936-32.507937v-763.936508a32.507937 32.507937 0 0 1 32.507936-32.507936h1229.883598a32.507937 32.507937 0 0 1 32.507937 32.507936V820.148148a32.507937 32.507937 0 0 1-32.507937 32.507937H81.269841z m726.855789-354.829545h-29.219217c0 46.513439-35.86709 82.060868-81.584085 82.060867-45.782011 0-81.584085-35.547429-81.584085-82.060867h-29.278814c0 55.826963 49.677545 111.020021 110.797883 111.020021 61.125757 0 110.862899-55.193058 110.868318-111.020021zM845.206349 450.234921h-0.065016v-137.508572c0-15.972233-13.111534-28.959153-29.219217-28.959153h-234.067978c-16.113101 0-29.219217 12.986921-29.219217 28.959153v137.508572c0 15.966815 13.106116 28.959153 29.219217 28.959153h234.132994c16.113101 0 29.219217-12.992339 29.219217-28.959153z m-123.140063-107.536254V401.630138c0 12.038772-9.849905 21.736974-21.932021 21.736973h-3.131598c-12.147132 0-21.932021-9.757799-21.932021-21.736973v-58.931471c0-12.038772 9.849905-21.736974 21.932021-21.736974h3.131598c12.147132 0 21.932021 9.763217 21.932021 21.736974z"  horiz-adv-x="1387" />

    
    <glyph glyph-name="GroupCopy2" unicode="&#58927;" d="M390.095238-125.301841A372.335069 372.335069 0 0 0 434.12182-95.492063H32.507937a32.507937 32.507937 0 0 0-32.507937 32.507936V863.492063a32.507937 32.507937 0 0 0 32.507937 32.507937h1321.989417a32.507937 32.507937 0 0 0 32.507937-32.507937v-926.47619a32.507937 32.507937 0 0 0-32.507937-32.507936h-401.613883a372.335069 372.335069 0 0 0 44.026582-29.809778h-90.875937c-59.559958 32.383323-134.907937 51.725545-216.84419 51.725545-81.936254 0-157.284233-19.342222-216.838773-51.725545H390.095238zM836.819302 545.131005c-3.088254 6.696635-7.476825 13.106116-13.165715 19.228445-5.650963 6.122328-10.814307 10.413376-15.484613 12.862307a44.590053 44.590053 0 0 1-7.801905 3.01782 36.977778 36.977778 0 0 1-9.313524 1.517037c-3.250794 0.075852-6.501587-0.330497-9.833651-1.354498a29.706836 29.706836 0 0 1-9.633185-5.179597c-2.438095-2.042582-5.488423-4.740741-9.145566-8.208254-3.657143-3.467513-6.788741-6.409481-9.470646-8.858413l62.187683-62.54527c1.544127 1.349079 3.20745 2.898624 5.000804 4.697397 1.544127 1.549545 3.369989 3.342899 5.483005 5.347555 2.113016 1.999238 4.469841 4.323556 7.151746 7.021715 2.438095 2.692741 4.226032 5.472169 5.325884 8.365375a24.435132 24.435132 0 0 1 1.668741 8.695873 40.364021 40.364021 0 0 1-0.812699 8.370794 32.502519 32.502519 0 0 1-2.156359 7.021714z m-259.23454-163.097735c-3.088254-3.142434-5.488423-5.959788-7.151746-8.533333a57.994159 57.994159 0 0 1-4.513185-8.533334c-1.099852-1.999238-2.519365-5.672635-4.307302-11.02019-1.787937-5.347556-3.619217-11.188148-5.488423-17.554286a1512.892275 1512.892275 0 0 1-5.325884-18.366984c-1.663323-5.92728-2.725249-10.45672-3.169524-13.561228-0.893968-5.797249-0.325079-9.914921 1.668741-12.369269 1.988402-2.492275 6.013968-3.348317 11.984593-2.692741 2.887788 0.449693 7.238434 1.462857 13.133206 3.01782a355.550138 355.550138 0 0 1 18.610794 5.515513 438.152804 438.152804 0 0 1 18.822095 6.528677c6.013968 2.205122 10.565079 4.12309 13.653333 5.678053a41.702265 41.702265 0 0 1 8.988445 5.347556 145.039577 145.039577 0 0 1 7.639365 6.366137c0.893968 0.650159 3.657143 3.304974 8.332868 8.002371 4.670307 4.697397 10.527153 10.657185 17.678899 17.922709a1701.05363 1701.05363 0 0 0 23.942095 23.882497l26.624 27.068275 71.533715 71.853376-62.268953 62.832423-71.533714-71.853375-26.949079-27.068276-24.305101-24.41346a2172.164063 2172.164063 0 0 1-18.291132-18.534942c-4.87619-5.022476-7.964444-8.16491-9.308106-9.513989z"  horiz-adv-x="1387" />

    
    <glyph glyph-name="GroupCopy3" unicode="&#58928;" d="M390.095238-125.301841A372.335069 372.335069 0 0 0 434.12182-95.492063H32.507937a32.507937 32.507937 0 0 0-32.507937 32.507936V863.492063a32.507937 32.507937 0 0 0 32.507937 32.507937h1321.989417a32.507937 32.507937 0 0 0 32.507937-32.507937v-926.47619a32.507937 32.507937 0 0 0-32.507937-32.507936h-401.613883a372.335069 372.335069 0 0 0 44.026582-29.809778h-90.875937c-59.559958 32.383323-134.907937 51.725545-216.84419 51.725545-81.936254 0-157.284233-19.342222-216.838773-51.725545H390.095238zM787.743153 592.592593h-188.546031C564.511153 592.592593 536.380952 564.429884 536.380952 529.738497V278.349206l59.202371 47.499514 192.192338-0.368424c34.718476 0 62.848677 28.135619 62.848678 62.859514V529.738497C850.591831 564.429884 822.46163 592.592593 787.743153 592.592593zM753.100529 397.544974h-31.148021L659.640212 491.454984V397.544974H628.486772V538.412698h31.148022l62.317714-93.91001V538.412698H753.100529v-140.867724z"  horiz-adv-x="1387" />

    
    <glyph glyph-name="Group2" unicode="&#58929;" d="M390.095238-125.301841A372.335069 372.335069 0 0 0 434.12182-95.492063H32.507937a32.507937 32.507937 0 0 0-32.507937 32.507936V863.492063a32.507937 32.507937 0 0 0 32.507937 32.507937h1321.989417a32.507937 32.507937 0 0 0 32.507937-32.507937v-926.47619a32.507937 32.507937 0 0 0-32.507937-32.507936h-401.613883a372.335069 372.335069 0 0 0 44.026582-29.809778h-90.875937c-59.559958 32.383323-134.907937 51.725545-216.84419 51.725545-81.936254 0-157.284233-19.342222-216.838773-51.725545H390.095238zM81.269841 852.656085a32.507937 32.507937 0 0 1-32.507936-32.507937v-763.936508a32.507937 32.507937 0 0 1 32.507936-32.507936h1229.883598a32.507937 32.507937 0 0 1 32.507937 32.507936V820.148148a32.507937 32.507937 0 0 1-32.507937 32.507937H81.269841z m755.549461-307.530498c0.899386-2.004656 1.625397-4.328974 2.156359-7.021714 0.568889-2.692741 0.812698-5.472169 0.812699-8.370794a24.435132 24.435132 0 0 0-1.668741-8.695873c-1.094434-2.898624-2.88237-5.672635-5.320466-8.365375-2.687323-2.698159-5.03873-5.022476-7.151746-7.021715-2.113016-2.004656-3.944296-3.798011-5.488423-5.347555-1.787937-1.798772-3.456677-3.348317-5.000804-4.697397l-62.187683 62.54527c2.681905 2.448931 5.813503 5.385481 9.470646 8.858413a200.774434 200.774434 0 0 0 9.145566 8.208254 29.706836 29.706836 0 0 0 9.633185 5.179597 30.58455 30.58455 0 0 0 9.833651 1.354498c3.212868-0.130032 6.339048-0.617651 9.308106-1.517037a44.590053 44.590053 0 0 0 7.801905-3.01782c4.675725-2.448931 9.839069-6.739979 15.490031-12.862307 5.688889-6.122328 10.07746-12.53181 13.165715-19.228445z m-259.23454-163.097735c1.338243 1.349079 4.426497 4.491513 9.308106 9.513989 4.87619 5.022476 10.971429 11.188148 18.291132 18.529524l24.305101 24.418878 26.949079 27.068276 71.533714 71.853375 62.268953-62.832423-71.533715-71.853376-26.624-27.068275a1701.05363 1701.05363 0 0 1-23.942095-23.882497c-7.151746-7.265524-13.003175-13.225312-17.678899-17.922709-4.675725-4.691979-7.438899-7.346794-8.332868-8.002371-2.23763-1.999238-4.756995-4.117672-7.639365-6.366137a41.702265 41.702265 0 0 0-8.983027-5.347556c-3.088254-1.554963-7.639365-3.467513-13.658751-5.678053a438.152804 438.152804 0 0 0-18.822095-6.528677 355.550138 355.550138 0 0 0-18.610794-5.515513c-5.894772-1.549545-10.24-2.568127-13.133206-3.01782-5.970624-0.650159-9.99619 0.200466-11.984593 2.692741-1.99382 2.448931-2.562709 6.572021-1.668741 12.369269 0.444275 3.104508 1.506201 7.639365 3.169524 13.55581 1.663323 5.921862 3.456677 12.04419 5.325884 18.366984a495.085037 495.085037 0 0 0 5.488423 17.559704c1.787937 5.347556 3.20745 9.020952 4.307302 11.02019 1.338243 3.104508 2.844444 5.959788 4.513185 8.533334 1.663323 2.573545 4.063492 5.390899 7.151746 8.533333z"  horiz-adv-x="1387" />

    
    <glyph glyph-name="Group3" unicode="&#58930;" d="M390.095238-125.301841A372.335069 372.335069 0 0 0 434.12182-95.492063H32.507937a32.507937 32.507937 0 0 0-32.507937 32.507936V863.492063a32.507937 32.507937 0 0 0 32.507937 32.507937h1321.989417a32.507937 32.507937 0 0 0 32.507937-32.507937v-926.47619a32.507937 32.507937 0 0 0-32.507937-32.507936h-401.613883a372.335069 372.335069 0 0 0 44.026582-29.809778h-90.875937c-59.559958 32.383323-134.907937 51.725545-216.84419 51.725545-81.936254 0-157.284233-19.342222-216.838773-51.725545H390.095238zM81.269841 852.656085a32.507937 32.507937 0 0 1-32.507936-32.507937v-763.936508a32.507937 32.507937 0 0 1 32.507936-32.507936h1229.883598a32.507937 32.507937 0 0 1 32.507937 32.507936V820.148148a32.507937 32.507937 0 0 1-32.507937 32.507937H81.269841z m706.473312-260.063492c34.718476 0 62.848677-28.162709 62.881186-62.854096V388.334392c0-34.729312-28.130201-62.859513-62.848678-62.859514l-192.192338 0.368424L536.380952 278.349206V529.738497C536.380952 564.429884 564.511153 592.592593 599.197122 592.592593h188.546031zM753.100529 397.544974V538.412698h-31.148021v-93.91001L659.640212 538.412698H628.486772v-140.867724h31.148022V491.454984L721.94709 397.544974H753.100529z"  horiz-adv-x="1387" />

    
    <glyph glyph-name="GroupCopy4" unicode="&#58931;" d="M390.095238-125.301841A372.335069 372.335069 0 0 0 434.12182-95.492063H32.507937a32.507937 32.507937 0 0 0-32.507937 32.507936V863.492063a32.507937 32.507937 0 0 0 32.507937 32.507937h1321.989417a32.507937 32.507937 0 0 0 32.507937-32.507937v-926.47619a32.507937 32.507937 0 0 0-32.507937-32.507936h-401.613883a372.335069 372.335069 0 0 0 44.026582-29.809778h-90.875937c-59.559958 32.383323-134.907937 51.725545-216.84419 51.725545-81.936254 0-157.284233-19.342222-216.838773-51.725545H390.095238zM701.62963 294.603175l85.333333 176.398899h-170.666667L701.62963 294.603175z m0 0L856.042328 475.721143l-57.826201-4.719069L701.62963 294.603175z m0 0l-96.277672 176.398899-58.135027 4.713651L701.62963 294.603175z m87.207957 272.30273l9.373122-86.785355L856.042328 475.726561l-67.204741 91.184762z m0 0L701.62963 576.338624l87.522201-90.870518-0.314244 81.432381zM701.62963 576.338624l-83.458709-96.218074h166.917418L701.62963 576.338624z m-87.207958-9.432719l-0.314243-81.437799L701.62963 576.338624l-87.207958-9.432719z m0 0L547.216931 475.721143l58.135027 4.399407 9.069714 86.785355z"  horiz-adv-x="1387" />

    
    <glyph glyph-name="Group4" unicode="&#58932;" d="M390.095238-125.301841A372.335069 372.335069 0 0 0 434.12182-95.492063H32.507937a32.507937 32.507937 0 0 0-32.507937 32.507936V863.492063a32.507937 32.507937 0 0 0 32.507937 32.507937h1321.989417a32.507937 32.507937 0 0 0 32.507937-32.507937v-926.47619a32.507937 32.507937 0 0 0-32.507937-32.507936h-401.613883a372.335069 372.335069 0 0 0 44.026582-29.809778h-90.875937c-59.559958 32.383323-134.907937 51.725545-216.84419 51.725545-81.936254 0-157.284233-19.342222-216.838773-51.725545H390.095238zM81.269841 852.656085a32.507937 32.507937 0 0 1-32.507936-32.507937v-763.936508a32.507937 32.507937 0 0 1 32.507936-32.507936h1229.883598a32.507937 32.507937 0 0 1 32.507937 32.507936V820.148148a32.507937 32.507937 0 0 1-32.507937 32.507937H81.269841z m620.359789-558.05291l-85.333334 176.398899h170.666667L701.62963 294.603175z m0 0l96.586497 176.398899 57.826201 4.713651L701.62963 294.603175z m0 0L547.216931 475.721143l58.135027-4.719069L701.62963 294.603175z m87.207957 272.30273L856.042328 475.721143l-57.826201 4.399407-9.373122 86.785355z m0 0l0.314244-81.437799L701.62963 576.338624l87.207957-9.432719zM701.62963 576.338624l83.458709-96.218074h-166.917418L701.62963 576.338624z m-87.207958-9.432719L701.62963 576.338624l-87.522201-90.870518 0.314243 81.432381z m0 0L605.351958 480.115132 547.216931 475.726561l67.204741 91.184762z"  horiz-adv-x="1387" />

    
    <glyph glyph-name="GroupCopy5" unicode="&#58933;" d="M660.994709 434.885757h-37.990942v-0.16254c-0.227556 0.05418-0.395513 0.05418-0.617651 0.05418-14.574392 0-26.40728-11.269418-26.40728-25.247831 0-6.501587 2.633143-12.390942 6.783323-16.920381l79.330201-84.157629a26.710688 26.710688 0 0 1 19.56436-8.430392 27.203725 27.203725 0 0 1 19.623957 8.376212l79.156826 84.271407c4.209778 4.469841 6.897101 10.353778 6.84292 16.866201 0 13.924233-11.827471 25.242413-26.40728 25.242413-0.558053 0-1.061926 0-1.571217-0.05418v0.21672H747.68254V570.920635h-86.687831v-136.034878zM390.095238-125.301841A372.335069 372.335069 0 0 0 434.12182-95.492063H32.507937a32.507937 32.507937 0 0 0-32.507937 32.507936V863.492063a32.507937 32.507937 0 0 0 32.507937 32.507937h1321.989417a32.507937 32.507937 0 0 0 32.507937-32.507937v-926.47619a32.507937 32.507937 0 0 0-32.507937-32.507936h-401.613883a372.335069 372.335069 0 0 0 44.026582-29.809778h-90.875937c-59.559958 32.383323-134.907937 51.725545-216.84419 51.725545-81.936254 0-157.284233-19.342222-216.838773-51.725545H390.095238z"  horiz-adv-x="1387" />

    
    <glyph glyph-name="Group5" unicode="&#58934;" d="M660.994709 434.885757V570.920635h86.687831v-135.975281h31.619386v-0.227555c0.509291 0.05418 1.013164 0.05418 1.571217 0.05418 14.574392 0 26.40728-11.31818 26.40728-25.236995 0.05418-6.512423-2.633143-12.39636-6.84292-16.866201l-79.156826-84.271407a27.203725 27.203725 0 0 0-19.623957-8.376212 26.710688 26.710688 0 0 0-19.56436 8.430392L602.762159 392.614603c-4.15018 4.529439-6.783323 10.413376-6.783323 16.925799 0 13.978413 11.827471 25.242413 26.40728 25.242413a2.275556 2.275556 0 0 0 0.617651-0.05418v0.16254H660.994709zM390.095238-125.301841A372.335069 372.335069 0 0 0 434.12182-95.492063H32.507937a32.507937 32.507937 0 0 0-32.507937 32.507936V863.492063a32.507937 32.507937 0 0 0 32.507937 32.507937h1321.989417a32.507937 32.507937 0 0 0 32.507937-32.507937v-926.47619a32.507937 32.507937 0 0 0-32.507937-32.507936h-401.613883a372.335069 372.335069 0 0 0 44.026582-29.809778h-90.875937c-59.559958 32.383323-134.907937 51.725545-216.84419 51.725545-81.936254 0-157.284233-19.342222-216.838773-51.725545H390.095238zM81.269841 852.656085a32.507937 32.507937 0 0 1-32.507936-32.507937v-763.936508a32.507937 32.507937 0 0 1 32.507936-32.507936h1229.883598a32.507937 32.507937 0 0 1 32.507937 32.507936V820.148148a32.507937 32.507937 0 0 1-32.507937 32.507937H81.269841z"  horiz-adv-x="1387" />

    
    <glyph glyph-name="_huaban" unicode="&#58916;" d="M692.56 153.07899999999995a18.426 18.426 0 0 1-24.357-9.27l-70.546-156.991a18.426 18.426 0 1 1 33.626-15.088l70.501 156.992a18.426 18.426 0 0 1-9.224 24.357z m70.117-72.125a18.313 18.313 0 0 1-24.199-9.201l-37.641-83.83a18.29 18.29 0 0 1 33.378-14.998l37.664 83.83a18.313 18.313 0 0 1-9.202 24.2z m9.586 749.98a112.63 112.63 0 0 1-35.973 9.382 113.374 113.374 0 0 1-20.297 1.895H307.218a113.036 113.036 0 0 1 0-226.072h222.373a15.133 15.133 0 0 0 5.436-1.263 14.862 14.862 0 0 0 7.465-19.644 7.6 7.6 0 0 0-0.429-0.722L313.488 85.35199999999998a112.765 112.765 0 0 1-8.638-29.815 50.925 50.925 0 0 0 28.101-92.468 112.63 112.63 0 0 1 37.348-27.063 113.036 113.036 0 0 1 149.414 56.81l309.36 688.704a113.013 113.013 0 0 1-56.81 149.414zM311.458 650.33a80.154 80.154 0 1 0 80.154 80.154 80.154 80.154 0 0 0-80.154-80.154z"  horiz-adv-x="1034" />

    
    <glyph glyph-name="liuyan1" unicode="&#942644;" d="M448 352a0.5 0.5 0 1 1 64 0 0.5 0.5 0 1 1-64 0zM576 352a0.5 0.5 0 1 1 64 0 0.5 0.5 0 1 1-64 0zM480 832C214.912 832 0 617.152 0 352s214.912-480 480-480c265.152 0 480 214.848 480 480S745.152 832 480 832z m224-544c0-64-33.984-96-96-96h-70.528l-134.784-89.6c-5.312-3.584-11.52-5.376-17.728-5.376a31.724 31.724 0 0 0-15.104 3.84c-10.368 5.568-16.896 16.384-16.896 28.16V192H352c-62.016 0-96 30.976-96 96V416c0 64 33.984 96 96 96h256c62.976 0 96-38.976 96-96v-128zM320 352a0.5 0.5 0 1 1 64 0 0.5 0.5 0 1 1-64 0z"  horiz-adv-x="1024" />

    
    <glyph glyph-name="qijixiulogo2" unicode="&#58912;" d="M692.559951 153.079024a18.425866 18.425866 0 0 1-24.357326-9.269316L597.656594-13.182275000000004a18.425866 18.425866 0 1 1 33.626641-15.08801l70.500925 156.991984a18.425866 18.425866 0 0 1-9.224209 24.357325zM762.677473 80.95427700000005a18.3131 18.3131 0 0 1-24.199453-9.201656l-37.641089-83.829795a18.290547 18.290547 0 0 1 33.378557-14.997797l37.663642 83.829794a18.3131 18.3131 0 0 1-9.201657 24.199454zM772.262532 830.934367a112.630077 112.630077 0 0 1-35.972161 9.382081 113.374328 113.374328 0 0 1-20.297771 1.894459H307.218042a113.036032 113.036032 0 0 1 0-226.072065h222.37336a15.133116 15.133116 0 0 0 5.435292-1.262972 14.862479 14.862479 0 0 0 7.465069-19.643732 7.600388 7.600388 0 0 0-0.428509-0.721698L313.487798 85.352128a112.765395 112.765395 0 0 1-8.637829-29.815171 50.924852 50.924852 0 0 0 28.101137-92.467624 112.630077 112.630077 0 0 1 37.347898-27.063695 113.036032 113.036032 0 0 1 149.414149 56.811206L829.073738 681.520218a113.013479 113.013479 0 0 1-56.811206 149.414149zM311.458021 650.32931a80.153643 80.153643 0 1 0 80.153643 80.153643 80.153643 80.153643 0 0 0-80.153643-80.153643z"  horiz-adv-x="1034" />

    
    <glyph glyph-name="qijishow1" unicode="&#58896;" d="M512.694685 895.999811a449.234195 449.234195 0 0 1-232.173025-834.071287l273.730622 152.835793L649.559996 471.837555a51.345957 51.345957 0 0 1 5.323493 34.001671 59.760512 59.760512 0 0 1-63.538475 48.426622l-7.555927-1.545531h-0.686902v1.545531l-1.545531-1.545531-78.650329-17.344286-9.101457-2.232433-79.337232-79.337232 9.78836-25.758842 122.440359 23.354683-86.893158-234.577183a235.950988 235.950988 0 1 0 165.543488 22.667781l-3.091061-2.232433-323.531049-179.968439a117.975494 117.975494 0 0 0 106.641603-185.291933l310.823354 174.644945A449.234195 449.234195 0 0 1 512.694685 895.999811zM453.449349 527.4766529999999l-58.901884-12.020793 12.879421-33.314768z m0 0"  horiz-adv-x="1024" />

    
    <glyph glyph-name="qijishow2" unicode="&#58902;" d="M454.62983375 515.1286265599999l-55.38151969-11.26949531 12.07445906-31.23260062 43.30706063 42.50209593zM921.34792813 540.88747313a420.9961425 420.9961425 0 1 1-626.42294157-458.82944907l256.62250594 143.12259 89.35099781 241.00620469a48.13684406 48.13684406 0 0 1 4.99077657 32.03756531 55.86449812 55.86449812 0 0 1-59.5673325 45.23897344l-7.0836825-1.28794219h-0.64397157v1.28794219l-1.44893437-1.28794219-73.7346975-16.421265-8.53261781-2.09290593-74.37866813-74.37866813 9.17658844-24.14891906 114.78785812 21.89502-81.46235062-219.75515719a221.20409156 221.20409156 0 1 0 155.19704812 21.25104844l-2.7368775-2.09290688-303.47140687-168.7204425a110.60204625 110.60204625 0 0 0 99.9765225-173.71121906l291.39694781 163.72966594a421.31812875 421.31812875 0 0 1 217.98423563 473.15780719z"  horiz-adv-x="1024" />

    
    <glyph glyph-name="qijishow2-copy" unicode="&#59565;" d="M506.38109022 396.84291071l-5.42413911-1.10374925 1.18258845-3.05896211 4.24155066 4.16271135zM552.09207619 399.36576612a41.23291767 41.23291767 0 1 1-61.35268942-44.93836162l25.13394682 14.01761528 8.75115462 23.60446569a4.71458603 4.71458603 0 0 1 0.48880324 3.13780142 5.47144266 5.47144266 0 0 1-5.83410313 4.43076475l-0.6937852-0.12614276h-0.06307143v0.12614276l-0.14191056-0.12614276-7.22167356-1.60832037-0.83569584-0.20498196-7.28474489-7.28474489 0.89876718-2.365177 11.24247428 2.14442715-7.9785301-21.52311005a21.66502059 21.66502059 0 1 0 15.20020366 2.08135573l-0.26805339-0.20498207-29.72239001-16.52470276a10.83251033 10.83251033 0 0 0 9.79183253-17.01350599l28.53980154 16.03589951a41.26445343 41.26445343 0 0 1 21.34966366 46.34169994z"  horiz-adv-x="1024" />

    
    <glyph glyph-name="qijishow2-copy-copy" unicode="&#59566;" d="M463.71442356 439.50957737l-5.42413911-1.10374925 1.18258845-3.05896211 4.24155066 4.16271135zM509.42540953 442.03243278a41.23291767 41.23291767 0 1 1-61.35268942-44.93836162l25.13394682 14.01761528 8.75115462 23.60446569a4.71458603 4.71458603 0 0 1 0.48880324 3.13780142 5.47144266 5.47144266 0 0 1-5.83410313 4.43076475l-0.6937852-0.12614276h-0.06307143v0.12614276l-0.14191056-0.12614276-7.22167356-1.60832037-0.83569584-0.20498196-7.28474489-7.28474489 0.89876718-2.365177 11.24247428 2.14442715-7.9785301-21.52311005a21.66502059 21.66502059 0 1 0 15.20020366 2.08135573l-0.26805339-0.20498207-29.72239001-16.52470276a10.83251033 10.83251033 0 0 0 9.79183253-17.01350599l28.53980154 16.03589951a41.26445343 41.26445343 0 0 1 21.34966366 46.34169994z"  horiz-adv-x="1024" />

    
    <glyph glyph-name="qijishow2-copy-copy-copy" unicode="&#59567;" d="M485.04775689 418.17624404l-5.42413911-1.10374925 1.18258845-3.05896211 4.24155066 4.16271135zM530.75874286 420.69909945a41.23291767 41.23291767 0 1 1-61.35268942-44.93836162l25.13394682 14.01761528 8.75115462 23.60446569a4.71458603 4.71458603 0 0 1 0.48880324 3.13780142 5.47144266 5.47144266 0 0 1-5.83410313 4.43076475l-0.6937852-0.12614276h-0.06307143v0.12614276l-0.14191056-0.12614276-7.22167356-1.60832037-0.83569584-0.20498196-7.28474489-7.28474489 0.89876718-2.365177 11.24247428 2.14442715-7.9785301-21.52311005a21.66502059 21.66502059 0 1 0 15.20020366 2.08135573l-0.26805339-0.20498207-29.72239001-16.52470276a10.83251033 10.83251033 0 0 0 9.79183253-17.01350599l28.53980154 16.03589951a41.26445343 41.26445343 0 0 1 21.34966366 46.34169994z"  horiz-adv-x="1024" />

    
    <glyph glyph-name="qijishow2-copy-copy-copy-copy" unicode="&#59568;" d="M492.158868 418.17624404l-5.42413911-1.10374925 1.18258845-3.05896211 4.24155066 4.16271135zM537.86985397 420.69909945a41.23291767 41.23291767 0 1 1-61.35268942-44.93836162l25.13394682 14.01761528 8.75115462 23.60446569a4.71458603 4.71458603 0 0 1 0.48880324 3.13780142 5.47144266 5.47144266 0 0 1-5.83410313 4.43076475l-0.6937852-0.12614276h-0.06307143v0.12614276l-0.14191056-0.12614276-7.22167356-1.60832037-0.83569584-0.20498196-7.28474489-7.28474489 0.89876718-2.365177 11.24247428 2.14442715-7.9785301-21.52311005a21.66502059 21.66502059 0 1 0 15.20020366 2.08135573l-0.26805339-0.20498207-29.72239001-16.52470276a10.83251033 10.83251033 0 0 0 9.79183253-17.01350599l28.53980154 16.03589951a41.26445343 41.26445343 0 0 1 21.34966366 46.34169994z"  horiz-adv-x="1024" />

    
    <glyph glyph-name="hanhua" unicode="&#58895;" d="M919.7468193359375 91.2717023437499c-22.322435449218744 0-37.10742451171875 14.784989941406247-37.10742451171875 37.10742451171875V759.2053470703125H251.81317460937487c-22.322435449218744 0-37.10742451171875 14.784989941406247-37.10742451171875 37.10742451171875S229.49073916015624 833.42019609375 251.81317460937487 833.42019609375h630.8262202148437c44.49991904296875 0 74.2148490234375-29.714929980468746 74.2148490234375-74.2148490234375v-630.8262202148437c0-22.322435449218744-14.784989941406247-37.10742451171875-37.10742451171875-37.10742451171875z m0 0M741.6021904296875-64.55049111328151h-37.10742451171875c-22.322435449218744 0-37.10742451171875 14.784989941406247-37.10742539062499 37.10742451171875s14.784989941406247 37.10742451171875 37.10742539062499 37.10742451171875h37.10742451171875V610.7756481445313H140.49090019531252v-593.7187948242188h281.9294569335937c22.322435449218744 0 37.10742451171875-14.784989941406247 37.10742539062499-37.10742539062499s-14.784989941406247-37.10742451171875-37.10742539062499-37.10742451171875H140.49090019531252C95.9909811523438-57.15799658203116 66.27605117187517-27.44306660156235 66.27605117187517 17.056853320312484V610.7756481445313c0 44.49991904296875 29.714929980468746 74.2148490234375 74.2148490234375 74.21484990234373h601.1112902343748c44.49991904296875 0 74.2148490234375-29.714929980468746 74.2148490234375-74.21484990234373v-601.1112902343748c0-44.49991904296875-29.714929980468746-74.2148490234375-74.2148490234375-74.2148490234375z m0 0M420.9708491210939 498.873570703125q0 13.480432031249997 5.653083691406248 18.263810742187495t19.133515722656252 4.928329687500001q12.610726171875001 0 18.698663671874996-4.928329687500001t6.087936621093749-18.263810742187495v-51.167659570312495h100.01610615234372a164.5192458984375 164.5192458984375 0 0 0 24.206796386718747-1.44950888671875q9.131905371093747-1.44950888671875 14.205186035156249-6.23288759765625a25.80125625 25.80125625 0 0 0 6.957641601562498-13.770333984375 122.19358974609375 122.19358974609375 0 0 0 1.8843618164062494-23.626992480468743v-123.20824658203124a124.94765654296872 124.94765654296872 0 0 0-1.5944598632812501-22.177484472656243 24.496698339843743 24.496698339843743 0 0 0-6.667740527343751-13.62538212890625 29.280077050781255 29.280077050781255 0 0 0-14.205186035156249-6.95764248046875 115.52584921874998 115.52584921874998 0 0 0-24.206796386718747-2.0293119140624998h-100.5959091796875v-83.78160732421871q0-10.5814142578125-5.218231640625-16.81430185546875t-19.568368652343747-6.23288759765625q-15.7996458984375 0-20.29312265625 5.218231640625t-4.4934767578125 18.26380986328125v83.34675527343745h-97.98679335937497a112.91673339843749 112.91673339843749 0 0 0-23.771944335937498 2.0293119140624998 28.26542109375 28.26542109375 0 0 0-14.205186035156249 7.102593457031248 25.511354296874995 25.511354296874995 0 0 0-6.667740527343751 13.77033310546875 121.61378671875 121.61378671875 0 0 0-1.5944598632812501 21.742631542968745v123.6430986328125a127.41182138671876 127.41182138671876 0 0 0 1.5944598632812501 22.61233740234374 24.496698339843743 24.496698339843743 0 0 0 6.667740527343751 13.62538212890625 27.975519140624993 27.975519140624993 0 0 0 14.205186035156249 6.667740527343751 125.38250947265625 125.38250947265625 0 0 0 23.771944335937498 1.8843618164062494h97.98679335937497z m-85.8109201171875-99.58125322265624q-6.087936621093749 0-7.682396484374998-2.0293119140624998t-1.5944598632812501-10.146561328125v-89.86954482421872q0-9.7117083984375 1.8843618164062494-12.030922265624998t8.697052441406251-2.1742637695312492h84.65131230468748v116.25060410156249z m135.38411982421877 0v-116.25060410156249h86.68062509765623q8.1172494140625 0 9.7117083984375 2.4641648437500003t1.5944598632812501 11.741021191406247v89.86954482421872q0 7.682396484374998-2.6091158203125 10.0016103515625t-12.030922265624998 2.174262890625z"  horiz-adv-x="1024" />

    
    <glyph glyph-name="baiduyunpan" unicode="&#58920;" d="M937.9543923958335 74.51135895833352m-55.1232665625 0a53.8678125 53.8678125 0 1 1 110.246533125 0 53.8678125 53.8678125 0 1 1-110.246533125 0ZM896.0365727083333 212.32096395833344c21.5249259375-21.529723125 56.4270225-21.534519375000002 77.956745625-0.009593437500000001 11.5611215625 11.557284375 16.8538528125 26.9701940625 16.00099125 42.102015l0.207219375 0c1.0140328125 61.7437378125-21.971983125 123.81077625-69.08180250000001 170.9301890625-48.161266874999995 48.1737384375-111.938825625 71.16742875-175.03140843749998 69.02807906250001 1.8841621875 12.0168121875 2.8713328125 24.33102375 2.8713328125 36.8764378125 0 130.4744184375-105.76924875 236.2427071875-236.2427071875 236.2427071875S276.4742355208333 661.7215498958334 276.4742355208333 531.2480914583332c0-13.431853125 1.1377884375-26.595088125 3.29152875-39.4148765625-1.0965365625 0.015349687499999999-2.1911540625 0.041251875-3.29152875 0.041251875-114.2364675 0-209.5334559375-81.0832659375-231.4833740625-188.8364484375-0.013430625-0.064276875-0.0239840625-0.1285528125-0.036455625-0.1918696875-0.3741459375-1.8467475-0.730065-3.70021125-1.0610409375-5.561349375-0.042210937500000004-0.23791875-0.0777075-0.47967468750000003-0.118959375-0.7175934375-0.295479375-1.6922925-0.58136625-3.3893821875-0.84039-5.09414625-0.0537234375-0.35112187499999997-0.09593531250000001-0.7060809375-0.1477396875-1.0572028125-0.2359996875-1.596358125-0.465285-3.194634375-0.66866625-4.800585-0.0652359375-0.5190084375-0.11608125-1.0418540625-0.1784390625-1.561820625-0.173641875-1.445739375-0.3472846875-2.8914796875-0.495024375-4.344894375-0.069073125-0.6849759375-0.118959375-1.374748125-0.18323531250000002-2.060683125-0.1199184375-1.297040625-0.24559312499999997-2.591203125-0.3444065625-3.894-0.066195-0.8720484375-0.1093659375-1.7498540625-0.1659675-2.623820625-0.0729103125-1.1243578125-0.155415-2.2448784375-0.212975625-3.3730734375-0.062357812500000005-1.2346828125-0.0978534375-2.4770409375-0.141024375-3.71652-0.026862187500000002-0.7751540625-0.0681140625-1.546471875-0.08826-2.322585-0.050845312499999996-2.021349375-0.07674750000000001-4.0503740625-0.07674750000000001-6.084195 0-36.695120624999994 8.3664871875-71.4370059375 23.295885-102.420159375 38.153332500000005-79.180875 119.16944343750001-133.82254875 212.9468221875-133.82254875 0.3338540625 0 0.6648290625 0.011512499999999998 0.9986831249999999 0.0124715625 1.557024375 0.0067153125 3.1121296875 0.022065 4.6614796875 0.058520625 0.766520625 0.0182278125 1.529203125 0.050845312499999996 2.2938046874999998 0.0757884375 1.1349103125 0.0374146875 2.2688615625 0.0757884375 3.398975625 0.129511875 0.8451871875 0.040292812500000004 1.68653625 0.091138125 2.5288453125 0.1400653125 1.04473125 0.06043875 2.087544375 0.12375562500000001 3.128439375 0.198585 0.8739675 0.062357812500000005 1.745056875 0.1314309375 2.61614625 0.202423125 1.0063575 0.08250375 2.010796875 0.1726828125 3.0133171875 0.26765812499999997 0.881641875 0.08346375 1.7623246875 0.1698046875 2.641089375 0.262861875 0.9890896875 0.10552875 1.9743412500000002 0.22065 2.95959375 0.3386503125 0.87972375 0.10456875 1.761365625 0.207219375 2.63821125 0.3223415625 0.9862115625000001 0.1285528125 1.9676259374999998 0.27149625 2.9500003125 0.41252062500000003 0.8662921875 0.12375562500000001 1.733544375 0.24175593750000002 2.596959375 0.3751059375 1.053365625 0.163089375 2.1000159375 0.3444065625 3.1485853125 0.5218865625 1.64336625 0.27725156250000005 3.28001625 0.571771875 4.91187 0.882601875 0.8298375 0.158293125 1.661593125 0.30987 2.4885525 0.4767965625 1.0169109375 0.20530125 2.027105625 0.4269103125 3.039219375 0.644683125 0.7646015625 0.1650084375 1.529203125 0.32617875 2.2909265625 0.4988615625 1.0380159375 0.235040625 2.071235625 0.48159375000000004 3.10349625 0.730065 0.7195125 0.1726828125 1.4390240625 0.346325625 2.1556584375 0.52572375 1.0610409375 0.26574 2.11824375 0.539154375 3.1735284375 0.8192840625 0.66387 0.17652 1.3258209375 0.3559190625 1.9877718749999997 0.5381953125 1.0994146875 0.3021946875 2.1969103125 0.6091865625 3.2896096875 0.925771875 0.566975625 0.1650084375 1.1320321875 0.3357721875 1.6970896875 0.5046178125 1.1790403125 0.3520809375 2.3571215625 0.7070409375 3.5294475 1.076390625 0.3280978125 0.1036096875 0.6533175 0.212975625 0.9804553125000001 0.318504375 6.02375625 1.9321303124999998 11.94198375 4.0993003125000005 17.7441290625 6.490959375 0.17556093749999999 0.07195125 0.3520809375 0.1429434375 0.5266828125 0.21489468750000001 1.3680328125 0.5679346875 2.7283903125 1.1512190625 4.083950625 1.7440978125 0.22065 0.096894375 0.4413009375 0.1918696875 0.660991875 0.28972312499999997 1.3651546875 0.60247125 2.723593125 1.217415 4.0753171875000005 1.8438703125 0.163089375 0.0757884375 0.32617875 0.152536875 0.48926812499999994 0.22832531250000002 41.307673125 19.282926562500002 76.1099971875 50.1567140625 100.22708625 88.4472328125l202.47168375 229.57426875000002c49.3355109375 36.709511250000006 119.41024031250001 32.696551875000004 164.181165-12.083967187499999 25.5848934375-25.589690625000003 37.829071875000004-59.4460959375 36.799689375-92.96960625l0.0892190625 0C879.1894352083333 239.29787333333354 884.4792883333333 223.88208552083347 896.0365727083333 212.32096395833344zM376.49698052083335 179.04592395833345l-10.0482271875-11.5831865625c-0.49022718749999994-0.49982156250000004-0.9785362499999999-1.0006012499999999-1.47739875-1.4927475l-0.0009590625000000001 0.0009590625000000001c-9.9513328125-9.8237390625-21.528763124999998-18.0050728125-34.290990937500005-24.101739374999998-0.0537234375-0.0259021875-0.108406875-0.0479671875-0.1621303125-0.07387031250000001-1.767121875-0.84135-3.5543896875-1.6443253125-5.3656425-2.4050896875-0.1429434375-0.06043875-0.290683125-0.11128500000000001-0.43458562500000003-0.1707646875-1.7268290624999998-0.716634375-3.4690078125-1.4044874999999999-5.2342115625000005-2.0462925-0.2475121875-0.0901790625-0.5017396875-0.1650084375-0.7502109375-0.2542275-1.6692684375-0.594796875-3.349089375-1.169446875-5.05001625-1.695170625-0.3722278125-0.1151221875-0.7530890625-0.2081784375-1.1262759375-0.3204225-1.589641875-0.47487843750000003-3.1840809375-0.9382434375-4.798666875-1.351723125-0.5190084375-0.13239-1.0495284375-0.23695968750000002-1.571415-0.362634375-1.485073125-0.35975625-2.9711053125-0.7185525-4.476325312499999-1.0245853125-0.6753825-0.1371871875-1.363235625-0.23791875-2.0424553125-0.3645525-1.3670728125-0.25518656250000005-2.7312684375-0.5190084375-4.1136909375-0.7291059375-0.87876375-0.13335-1.7719190625-0.2225690625-2.6564390625-0.33769125-1.2020653125-0.1563740625-2.397414375-0.3328940625-3.6100321875-0.4547315625-1.147381875-0.11608125-2.3101134375-0.1784390625-3.4661296875-0.2638209375-0.9651056250000001-0.0709921875-1.9234959374999998-0.1698046875-2.8943578125-0.218731875-2.06260125-0.1036096875-4.1386340625-0.1534959375-6.226178437500001-0.157333125-0.0757884375 0-0.14965875-0.005756249999999999-0.2254471875-0.005756249999999999-69.58546125 0-125.996175 56.41071375-125.996175 125.996175 0 2.1422278125 0.055642500000000004 4.2710240625 0.16117031250000002 6.3873496874999995 0.029739375 0.600553125 0.0930571875 1.192471875 0.1314309375 1.7911059374999998 0.09593531250000001 1.4927475 0.1918696875 2.984536875 0.339609375 4.46289375 0.0901790625 0.903706875 0.22065 1.794943125 0.3300159375 2.6919346875 0.1400653125 1.1521790625 0.26765812499999997 2.3072353125 0.4384228125 3.4498209375 0.1621303125 1.0831059375 0.3655125 2.1527803125 0.555463125 3.2262928125 0.1640484375 0.932488125 0.31466625 1.8688125 0.4988615625 2.79362625 0.24367499999999997 1.217415 0.527641875 2.420439375 0.8058534375 3.625381875 0.174601875 0.7569271875 0.3357721875 1.5196096875 0.5238046875 2.270780625 0.3338540625 1.3286990625 0.705121875 2.6430084375 1.081186875 3.9544387499999996 0.17172375 0.60247125 0.331935 1.208780625 0.5132521875 1.8074146875000001 0.4326665625 1.4284715625 0.90178875 2.8415934375 1.3824224999999999 4.2489590625 0.1563740625 0.45665062500000003 0.3031546875 0.9180975 0.464325 1.3728290625 0.539154375 1.517690625 1.1128453125 3.0181134375 1.7076421875 4.50798375 0.1285528125 0.3223415625 0.251349375 0.64756125 0.38182125 0.9689428125 0.6523575 1.595398125 1.3392515625 3.172569375 2.054926875 4.7353490625 0.0901790625 0.196666875 0.17652 0.395251875 0.26765812499999997 0.59191875 0.7722759375 1.6635121875 1.579089375 3.3068775 2.420439375 4.930097812500001 0.042210937500000004 0.08058562500000001 0.08250375 0.1621303125 0.12471562500000001 0.24271500000000001 5.4097725 10.3753659375 12.2192353125 19.90650375 20.177999062500003 28.343023125000002 0.9718209374999999 0.9401625 1.8966337500000001 1.9263740625 2.7974634375 2.933690625 22.7807146875 22.654080937499998 54.1715915625 36.6605840625 88.83768843749999 36.6605840625 69.58546125 0 125.996175-56.41071375 125.996175-125.996175C402.47136958333334 226.81385708333357 392.7752233333333 200.2734523958335 376.49698052083335 179.04592395833345zM512.7179027083333 405.25095739583327c-69.58546125 0-125.996175 56.41071375-125.996175 125.996175s56.41071375 125.996175 125.996175 125.996175 125.996175-56.41071375 125.996175-125.996175S582.3033639583334 405.25095739583327 512.7179027083333 405.25095739583327z"  horiz-adv-x="1024" />

    
    <glyph glyph-name="github" unicode="&#59017;" d="M512 852.15c-265.0799999999999 0-480-214.89000000000001-480-480 0-212.07 137.55-392.01 328.26-455.46000000000004 24-4.4399999999999995 32.82 10.41 32.82 23.1 0 11.43-0.44999999999999996 49.26-0.6599999999999998 89.37-133.56-29.039999999999996-161.72999999999996 56.63999999999999-161.72999999999996 56.63999999999999-21.839999999999996 55.47-53.279999999999994 70.23-53.279999999999994 70.23-43.559999999999995 29.789999999999996 3.3 29.189999999999994 3.3 29.189999999999994 48.18-3.3899999999999997 73.56-49.47 73.56-49.47 42.81-73.38000000000001 112.28999999999999-52.17 139.67999999999998-39.900000000000006 4.29 31.02 16.740000000000002 52.2 30.48 64.19999999999999-106.61999999999998 12.12-218.7 53.30999999999999-218.7 237.21 0 52.410000000000004 18.75 95.22 49.47 128.85-4.9799999999999995 12.089999999999998-21.419999999999998 60.899999999999984 4.65 127.01999999999998 0 0 40.32 12.9 132.03-49.199999999999996a460.59 460.59 0 0 0 120.14999999999998 16.169999999999998c40.76999999999999-0.17999999999999997 81.87-5.52 120.23999999999998-16.169999999999998 91.61999999999998 62.09999999999999 131.84999999999997 49.199999999999996 131.84999999999997 49.199999999999996 26.13-66.12 9.689999999999998-114.92999999999999 4.709999999999999-127.01999999999998 30.779999999999998-33.6 49.41-76.43999999999998 49.41-128.85 0-184.35-112.28999999999999-224.93999999999997-219.18-236.84999999999997 17.22-14.91 32.55-44.099999999999994 32.55-88.89 0-64.23-0.5699999999999998-115.91999999999999-0.5699999999999998-131.73 0-12.78 8.639999999999999-27.75 32.97-23.039999999999996C854.63-19.710000000000036 992 160.14 992 372.15c0 265.11-214.92 480-480 480z"  horiz-adv-x="1024" />

    
    <glyph glyph-name="shijian" unicode="&#59082;" d="M485.703077 649.211291l52.680826-0.566912-0.566912-243.012709L801.797245 304.80224l-21.522176-56.637951L485.205751 356.425991 485.703077 649.211291 485.703077 649.211291 485.703077 649.211291zM86.898139 382.97567c0-234.642065 190.217273-424.841941 424.859337-424.841941 234.648205 0 424.865477 190.199876 424.865477 424.841941 0 234.637971-190.217273 424.842964-424.865477 424.842964C277.115412 807.819658 86.898139 617.613642 86.898139 382.97567L86.898139 382.97567 86.898139 382.97567zM86.898139 382.97567"  horiz-adv-x="1024" />

    
    <glyph glyph-name="wechat-copy" unicode="&#58995;" d="M693.12 548.736c11.776 0 23.36-0.896 35.008-2.176-31.36 146.048-187.456 254.528-365.696 254.528-199.232 0-362.432-135.744-362.432-308.224 0-99.52 54.272-181.248 145.024-244.736l-36.224-108.992 126.72 63.488c45.312-8.896 81.664-18.112 126.912-18.112 11.392 0 22.656 0.512 33.792 1.344-7.040 24.256-11.2 49.6-11.2 76.032 0.064 158.336 136 286.848 308.096 286.848zM498.304 646.976c27.392 0 45.376-17.984 45.376-45.248 0-27.136-17.984-45.312-45.376-45.312-27.072 0-54.336 18.176-54.336 45.312 0 27.328 27.2 45.248 54.336 45.248zM244.672 556.416c-27.2 0-54.592 18.176-54.592 45.312 0 27.264 27.392 45.248 54.592 45.248s45.248-17.92 45.248-45.248c0-27.136-18.048-45.312-45.248-45.312zM1024 266.24c0 144.896-145.024 262.976-307.904 262.976-172.48 0-308.224-118.144-308.224-262.976 0-145.28 135.808-262.976 308.224-262.976 36.096 0 72.512 9.024 108.736 18.112l99.392-54.528-27.264 90.624c72.768 54.656 127.040 127.040 127.040 208.768zM616.128 311.616c-17.984 0-36.224 17.92-36.224 36.224 0 18.048 18.24 36.224 36.224 36.224 27.52 0 45.376-18.176 45.376-36.224 0-18.304-17.856-36.224-45.376-36.224zM815.488 311.616c-17.856 0-36.032 17.92-36.032 36.224 0 18.048 18.112 36.224 36.032 36.224 27.264 0 45.376-18.176 45.376-36.224 0-18.304-18.112-36.224-45.376-36.224z"  horiz-adv-x="1024" />

    
    <glyph glyph-name="qqqun" unicode="&#59564;" d="M358.42005302083334 97.4222225347221c-12.7999996875 0-31.9999996875 6.4000003125-44.799999375 41.5999996875-16.0000003125 41.5999996875-9.6 102.40000031250001 15.999999375000002 169.6000003125 9.6 25.6000003125 25.6000003125 54.400000312500005 44.8000003125 79.9999996875-3.1999996875 9.6-3.1999996875 19.2-3.1999996875 28.799999999999997 0 22.3999996875 6.4000003125 54.400000312500005 41.5999996875 86.39999999999999 9.6 67.2 38.4 127.9999996875 86.39999999999999 172.79999999999998 12.7999996875 19.2 31.9999996875 31.9999996875 51.1999996875 41.5999996875-44.8000003125 48-102.40000031250001 76.8-169.599999375 76.8-124.80000000000001 0-227.2000003125-102.40000031250001-240-233.5999996875-22.3999996875-19.2-38.4-44.8000003125-38.4-70.3999996875 0-12.7999996875 3.1999996875-22.3999996875 9.6-35.2000003125-16.0000003125-19.2-38.4-51.1999996875-54.400000312500005-86.39999999999999-22.3999996875-57.599999999999994-25.6000003125-112.0000003125-12.7999996875-147.1999996875 9.6-31.9999996875 28.799999999999997-28.799999999999997 44.799999375 0 3.1999996875 6.4000003125 9.6 16.0000003125 16.0000003125 28.799999999999997 12.7999996875-38.4 31.9999996875-70.3999996875 57.599999999999994-99.200000625-16.0000003125-3.1999996875-28.799999999999997-9.6-35.2000003125-15.999999375000002-28.799999999999997-25.6000003125-28.799999999999997-54.400000312500005-6.399999375-76.8 31.9999996875-28.799999999999997 160.0000003125-44.8000003125 233.5999996875 0h25.6000003125c6.4000003125 9.6 12.7999996875 22.3999996875 25.599999375 31.9999996875 3.1999996875 3.1999996875 6.4000003125 3.1999996875 6.4000003125 6.4000003125-3.1999996875 6.4000003125-9.6 12.7999996875-12.7999996875 22.3999996875-9.6-16.0000003125-22.3999996875-22.3999996875-41.600000625-22.3999996875zM979.2200533333333 299.02222253472223c-12.7999996875 35.2000003125-35.2000003125 64.00000031249999-51.1999996875 83.199999375 6.4000003125 9.6 9.6 22.3999996875 9.6 32.000000625 0 22.3999996875-12.7999996875 44.8000003125-35.2000003125 63.999999375-12.7999996875 121.60000031250001-108.79999968749999 220.8-223.9999996875 220.8s-211.2-96-224.000000625-220.8c-22.3999996875-19.2-35.2000003125-41.5999996875-35.199999375000004-63.999999375 0-12.7999996875 3.1999996875-22.3999996875 9.6-32.000000625-16.0000003125-19.2-38.4-48-51.200000625-83.199999375-19.2-54.400000312500005-25.6000003125-105.6-12.7999996875-137.600000625 9.6-28.799999999999997 28.799999999999997-25.6000003125 41.5999996875 0 3.1999996875 6.4000003125 9.6 16.0000003125 16.0000003125 25.6000003125 9.6-35.2000003125 28.799999999999997-67.2 51.1999996875-92.8000003125-16.0000003125-3.1999996875-28.799999999999997-9.6-35.199999375000004-15.999999375000002-25.6000003125-22.3999996875-28.799999999999997-51.1999996875-6.4000003125-73.60000031249999 28.799999999999997-28.799999999999997 150.4000003125-41.5999996875 220.8 0h51.1999996875c70.3999996875-41.5999996875 188.8000003125-25.6000003125 220.8 0 22.3999996875 22.3999996875 22.3999996875 48-6.399999375 73.60000031249999-6.4000003125 6.4000003125-19.2 12.7999996875-35.2000003125 15.999999375000002 22.3999996875 25.6000003125 41.5999996875 57.599999999999994 51.1999996875 92.8000003125 6.4000003125-9.6 12.7999996875-19.2 16.0000003125-25.6000003125 16.0000003125-25.6000003125 31.9999996875-28.799999999999997 41.5999996875 0 12.7999996875 35.2000003125 6.4000003125 83.20000031250001-12.7999996875 137.600000625z"  horiz-adv-x="1025" />

    
    <glyph glyph-name="shubiaodianji" unicode="&#58980;" d="M818.304 535.5733333333333c-1.536 76.288-31.36 152.128-89.536 210.368-119.68 119.68-313.664 119.68-433.408 0-58.24-58.24-88-134.016-89.6-210.368L205.568 535.5733333333333l0-6.336c0 0 0 0 0-0.064l0-282.688 0-0.064 0-12.608 0.256 0c3.136-74.176 32.896-147.456 89.472-204.032 119.744-119.68 313.728-119.68 433.408 0 56.576 56.64 86.4 129.856 89.408 204.032l0.256 0L818.368 535.5733333333333 818.304 535.5733333333333zM536.576 424.5973333333333c0-13.504-11.008-24.512-24.576-24.512S487.552 411.02933333333334 487.552 424.5973333333333L487.552 788.8213333333333c0 13.504 10.88 24.512 24.448 24.512s24.576-10.944 24.576-24.512L536.576 424.5973333333333z"  horiz-adv-x="1024" />

    
    <glyph glyph-name="qijishow" unicode="&#58894;" d="M664.849409276661 480.7188261467316l-42.93704453855501-8.80759968539077 9.358075058500194-24.220895992644618 33.57896948005481 33.02849567803539zM709.9883537365638 751.552488192878a326.9821061127872 326.9821061127872 0 0 1-168.99580285976293-607.1738416463435L740.2644741201423 255.5745807914176l69.3598404525473 187.1614744614738a37.43229552073076 37.43229552073076 0 0 1 3.8533244695859614 24.77137136575403 43.48751834057441 43.48751834057441 0 0 1-46.23989363503153 35.23039559938308l-5.504749017824229-1.1009491751288452h-0.5504753731094241v1.1009491751288452l-1.1009491751288452-1.1009491751288452-57.249391670679984-12.660924154976735-6.605699764043079-1.651424548238269-57.79986704378942-57.79986704378942 7.156173566062498-18.71614697482038L734.7597251023179 427.8732327476572l-63.30461606161363-170.6472274080011a171.74817658313003 171.74817658313003 0 1 0 120.55400773229367 16.514248624562693l-2.2018999213476924-1.651424548238269-235.60326801785314-131.0130335370127A85.87408907711001 85.87408907711001 0 0 0 631.8209135986256 6.209439443458223l226.24519453044292 127.15970749633675A326.9821061127872 326.9821061127872 0 0 1 709.9883537365638 751.552488192878zM1345.786892789336 250.06983177359336h-0.5504753731094241L1224.682408112844 522.5549199390678h-17.61519779969154v-282.94411239910346h9.358075058500194V514.2977956267864h1.1009491751288452l121.65495847851253-274.6869880868221h12.110448781867312l121.10448310540308 274.6869880868221h1.651424548238269v-274.6869880868221h9.35807348741019V522.5549199390678h-17.615196228601533L1345.786892789336 250.06983177359336zM1548.912140502262 522.5549199390678h9.35807348741019v-282.99915867954235h-9.35807348741019zM1819.7458025484082 321.63157214748844c-2.7523752944571163 29.17517120844942-19.817097721039232 47.34084281016038-51.19416727974635 54.49701794731286a71.561740373895 71.561740373895 0 0 1 42.386569165445565 24.77137136575403 76.51601401860978 76.51601401860978 0 0 1 14.862822505234423 46.23989363503153c0 24.220895992644618-7.706648939171923 42.93704453855501-22.569471444406346 55.59796712244172s-36.881820147621355 19.817097721039232-64.40556680783251 19.817097721039232h-115.59973408757884v-282.94411239910346h9.35807348741019V372.2752656252153h106.79213597327809a92.47978727006306 92.47978727006306 0 0 0 47.89131818326979-10.459024233629039 49.54274273150806 49.54274273150806 0 0 0 23.119946817515764-40.184669244097876l3.302849096476538-41.83609379233614a97.98453628788732 97.98453628788732 0 0 1 9.908548860519616-39.08372006896903h10.459024233629039a96.33311173964904 96.33311173964904 0 0 0-11.559973408757882 41.83609379233614z m-80.36933848819575 60.001766965137115h-106.24166060016863V513.1968464516576h105.6911852270592c26.422795913992314 0 46.23989363503153-5.504749017824229 59.45129159202769-17.61519779969154s17.61519779969154-26.97327128710173 17.61519779969154-48.44179355637923a61.10271614026595 61.10271614026595 0 0 0-19.266622347929808-46.790369008140964c-13.211397956996157-12.660922583886725-32.47802030492595-18.71614697482038-57.249391670679984-18.71614697482038zM1965.0711832175457 522.5549199390678l-116.70068326270767-282.94411239910346h11.009498035648457l37.982769322750194 93.03026264317248H2044.8900479037222l37.982769322750194-93.03026264317248h11.009498035648457l-116.15020788959829 282.94411239910346zM1901.7665671559325 342.54961904365655L1971.1264076084794 512.6463710785481h1.1009491751288452l68.80936665052788-170.0967520348917zM2311.8703870513773 266.03360502504654a114.49878491244996 114.49878491244996 0 0 0-70.46079119876616-22.569473015496346 107.89308514840693 107.89308514840693 0 0 0-86.97503825223885 39.634195442078465c-21.468522269277504 25.321846738863453-31.927544931816538 57.249391670679984-31.927544931816538 95.78263636653958s10.459024233629039 72.11221574700441 31.927544931816538 98.53501166099673 53.396067201094034 41.28561999031675 91.37883809493424 41.28561999031675a114.49878491244996 114.49878491244996 0 0 0 68.25888970632846-21.468522269277504 83.67218915576231 83.67218915576231 0 0 0 35.780870972492494-58.35034241689884h8.807598114300767a91.92931189695365 91.92931189695365 0 0 1-39.083718497879026 66.05699135607078 120.00353393027423 120.00353393027423 0 0 1-73.76364029524271 23.119946817515764c-41.28561999031675 0-74.31411566835212-14.862822505234423-98.53501166099673-44.58846908679326s-34.67992022627365-62.754142259594225-34.67992022627365-104.03976067882094 11.009498035648457-74.86458947037154 34.12944485316423-102.38833613058267 55.59796712244172-42.93704453855501 94.68168719141075-42.93704453855501a123.30638302675077 123.30638302675077 0 0 1 77.06648939171923 24.77137136575403 118.90258318405537 118.90258318405537 0 0 1 44.58846908679326 75.96554021659038H2353.1560054706033a107.89308514840693 107.89308514840693 0 0 0-41.28561841922673-68.80936507943787zM2419.212996826675 522.5549199390678h-9.35807348741019v-282.94411239910346H2600.869722270326v9.358075058500194h-181.65672544364963V522.5549199390678zM2649.861991199815 382.18381448573496h176.1519748547353v9.90854728942961h-176.1519748547353v121.10448467649309h185.5100499132356v9.35807348741019h-194.86812497173574v-282.94411239910346h201.47382316468884v9.358075058500194h-192.11574810618865V382.18381448573496zM3189.8778923149584 371.724790252106c-12.660922583886725 7.706648939171923-36.881820147621355 16.51424705347269-72.66268954902384 26.97327128710173a421.6637933041981 421.6637933041981 0 0 0-54.49701794731286 18.16567317280096c-17.61519779969154 9.35807348741019-26.422795913992314 22.01899764238693-26.422795913992314 37.43229394964076a42.93704453855501 42.93704453855501 0 0 0 22.018996071296915 40.184669244097876c13.211397956996157 7.706648939171923 30.82659575668769 12.110448781867312 53.94654257420346 12.110448781867312s43.48751834057441-5.504749017824229 57.24939324177002-17.064722426582115 22.01899764238693-28.074220462230567 24.77137136575403-50.093218104617485h24.220895992644618c-2.2018999213476924 29.17517120844942-13.211397956996157 51.744642652855774-31.927544931816538 66.60746515809019s-42.93704453855501 22.569471444406346-73.76364029524271 22.569473015496346-52.29511802596518-6.055224390933656-70.46079119876616-18.16567317280096a62.20366688648481 62.20366688648481 0 0 1-30.276120383578263-56.14844249555114c0-23.119946817515764 10.459024233629039-40.73514461720731 32.47802030492595-52.84559182798463 9.35807348741019-5.504749017824229 31.377071129797113-13.211397956996157 64.95604218094192-22.569473015496346s52.84559339907461-16.51424705347269 62.20366531539478-22.018996071296915c19.266622347929808-10.459024233629039 29.17517120844942-25.872322111972892 29.17517120844942-45.13894445990268a46.23989363503153 46.23989363503153 0 0 0-23.119946817515764-40.184669244097876 114.49878491244996 114.49878491244996 0 0 0-60.552240767156526-14.862822505234423c-26.422795913992314 0-46.23989363503153 6.055224390933656-60.55224233824654 17.615196228601533s-24.77137136575403 33.02849567803539-27.523746660211156 59.45129316311771h-23.67042061953519c2.2018999213476924-34.12944485316423 14.312348703215003-60.001766965137115 35.7808694014025-77.06648939171923s44.58846908679326-22.01899764238693 77.06648939171923-22.01899764238693 57.79986704378942 6.605699764043079 77.06648939171923 20.367571523058654a67.70841590430904 67.70841590430904 0 0 1 30.276121954668266 57.79986704378942c-0.5504753731094241 25.321846738863453-12.110448781867312 45.13894445990268-35.780870972492494 58.90081779000827zM3466.7667803231284 397.04663699096926h-175.60150105271597V522.5549199390678H3266.9443817066776v-282.94411239910346h24.220897563734624V375.0276393485825h175.60150105271597v-135.41683180861807h24.220895992644618V522.5549199390678h-24.220895992644618V397.04663699096926zM3671.543452584294 528.059668956892q-62.754142259594225 0-99.63596240721559-42.93704453855501c-23.119946817515764-26.97327128710173-34.67992022627365-61.65319151337538-34.67992022627365-104.03976067882094s11.559973408757882-77.06648939171923 34.67992022627365-104.03976067882094 57.249391670679984-42.93704453855501 99.63596240721559-42.93704453855501 74.86458947037154 14.312348703215003 99.63596083612556 42.386569165445565 34.67992022627365 61.65319151337538 34.67992022627365 104.59023605193036-11.559973408757882 77.06648939171923-34.67992022627365 104.03976067882094-57.79986704378942 42.93704453855501-99.63596083612556 42.93704453855501z m80.91981386130519-236.70421719298193c-19.817097721039232-23.119946817515764-46.790369008140964-35.23039559938308-81.47028923441462-35.23039559938308s-61.65319151337538 12.110448781867312-81.47028923441462 35.7808694014025-28.074220462230567 52.29511802596518-28.074220462230567 89.17693817358652 9.35807348741019 66.05699135607078 28.624695835339992 89.17693817358652 47.34084281016038 35.7808694014025 81.47028923441462 35.7808694014025 61.10271614026595-11.559973408757882 80.91981386130519-35.23039402829307 28.624695835339992-52.29511802596518 28.624695835339992-89.72741354669596-9.908548860519616-66.60746672918019-28.624695835339992-89.72741197560596zM4155.961386576992 522.5549199390678l-67.70841590430904-250.4660905230875h-1.1009491751288452l-69.3598404525473 250.4660905230875h-28.07422203332058l-69.3598404525473-250.4660905230875h-1.1009491751288452l-67.70841590430904 250.4660905230875h-27.523746660211156l81.47028923441462-282.94411239910346h28.624695835339992l69.3598404525473 248.81466754593924h1.1009491751288452l69.3598404525473-248.81466754593924h28.624697406430005l80.91981386130519 282.94411239910346h-27.523746660211156z"  horiz-adv-x="4591" />

    
    <glyph glyph-name="weixin" unicode="&#58893;" d="M506.26562285714283 477.86519523809517c15.10885238095238 0 27.32419333333333 11.865892380952381 27.32419333333333 26.480332380952376 0 14.628839999999999-12.21534095238095 26.47553238095238-27.32419333333333 26.47553238095238s-27.33571333333333-11.846691428571427-27.33571333333333-26.47553238095238C478.93086952380946 489.73108761904757 491.1567704761904 477.86519523809517 506.26562285714283 477.86519523809517zM370.7448457142857 530.821059047619c-15.096371428571429 0-27.32323238095238-11.846691428571427-27.32323238095238-26.47553238095238 0-14.61348 12.226860952380951-26.480332380952376 27.32323238095238-26.480332380952376 15.121332380952381 0 27.362593333333333 11.865892380952381 27.362593333333333 26.480332380952376C398.10743904761904 518.9743676190476 385.866178095238 530.821059047619 370.7448457142857 530.821059047619zM567.0015180952381 393.4359161904762c-12.763514285714285 0-23.10104857142857-9.998646666666666-23.10104857142857-22.342630476190475 0-12.35934476190476 10.337534285714286-22.383911428571427 23.10104857142857-22.383911428571427 12.761594285714285 0 23.112569523809526 10.024566666666667 23.112569523809526 22.383911428571427C590.1140876190477 383.4372704761904 579.7631123809524 393.4359161904762 567.0015180952381 393.4359161904762zM681.4555371428571 393.4359161904762c-12.748154285714286 0-23.08568857142857-9.998646666666666-23.08568857142857-22.342630476190475 0-12.35934476190476 10.337534285714286-22.383911428571427 23.08568857142857-22.383911428571427 12.788475238095238 0 23.11352952380952 10.024566666666667 23.11352952380952 22.383911428571427C704.5690657142858 383.4372704761904 694.2440114285715 393.4359161904762 681.4555371428571 393.4359161904762zM516.2652285714286 866.6056485714286c-264.9751647619048 0-479.77949428571424-214.8043295238095-479.77949428571424-479.7785342857143 0-264.9751647619048 214.8043295238095-479.77949428571424 479.77949428571424-479.77949428571424 264.97420476190473 0 479.77949428571424 214.8043295238095 479.77949428571424 479.77949428571424C996.0447238095239 651.801319047619 781.2394342857144 866.6056485714286 516.2652285714286 866.6056485714286zM438.50523428571427 285.4188561904763c-21.535250476190477 0-42.24968 2.9213523809523805-61.606637142857146 8.304204761904762-1.107867619047619 0.31296761904761905-3.3120819047619046 0.9581038095238094-3.3120819047619046 0.9581038095238094l-70.39373333333333-35.85496285714286 18.824143809523807 58.934891428571426c0 0-1.1865895238095236 0.7430580952380952-1.7990847619047616 1.1280276190476188-46.47378476190476 29.74825238095238-76.4169219047619 76.63100666666666-76.4169219047619 129.3689457142857 0 89.94365523809523 87.15766666666666 162.84785047619044 194.70431428571425 162.84785047619044 97.40399904761904 0 178.10934571428572-59.81619333333333 192.46265904761904-137.94003714285714-2.724546666666667 0.13344285714285714-5.4356542857142855 0.1881647619047619-8.199561904761904 0.1881647619047619-97.92625142857142 0-177.35284761904762-66.57091904761906-177.35284761904762-148.68366095238093 0-13.441291428571427 2.1898142857142857-26.462091428571426 6.17967238095238-38.84831619047618C447.25296952380944 285.5820600000002 442.9117428571428 285.4188561904763 438.50523428571427 285.4188561904763zM724.1612285714286 214.4126276190476c-0.4953723809523809-0.31296761904761905-1.5110771428571426-0.9513838095238094-1.5110771428571426-0.9513838095238094l15.87783142857143-49.79738666666667-59.43026380952381 30.307946666666663c0 0-1.8643657142857142-0.5596933333333333-2.803268571428571-0.8073799999999999-16.348242857142857-4.562992380952381-33.85523333333333-7.038893333333332-52.026560952380954-7.038893333333332-90.87199809523808 0-164.5394114285714 61.60087714285714-164.5394114285714 137.5867476190476 0 75.98011142857142 73.6664542857143 137.5617876190476 164.5394114285714 137.5617876190476 90.82207619047618 0 164.46260952380953-61.58167619047619 164.46260952380953-137.5617876190476C788.7295380952381 279.14894190476195 763.4002742857144 239.5460466666667 724.1612285714286 214.4126276190476z"  horiz-adv-x="1025" />

    
    </font>
</defs>
</svg>
